<svg xmlns="http://www.w3.org/2000/svg" width="920" height="420" viewBox="0 0 920 420" role="img" aria-label="Standard map Lyapunov exponent vs K">
<rect width="100%" height="100%" fill="#0b1020"/>
<text x="460.0" y="24" fill="#e2e8f0" font-family="system-ui,sans-serif" font-size="16" text-anchor="middle">Chirikov standard map — mean Λ(K)</text>
<line x1="70" y1="365" x2="890" y2="365" stroke="#64748b" stroke-width="1"/>
<line x1="70" y1="40" x2="70" y2="365" stroke="#64748b" stroke-width="1"/>
<line x1="229.35" y1="40" x2="229.35" y2="365" stroke="#f59e0b" stroke-width="1.5" stroke-dasharray="6 4"/>
<text x="235.3" y="56" fill="#fbbf24" font-size="12" font-family="system-ui,sans-serif">K_crit ≈ 0.972</text>
<polygon points="70.00,365.00 70.40,364.97 70.80,364.97 71.20,364.97 71.60,364.96 72.00,364.96 72.40,364.96 72.80,364.96 73.20,364.96 73.61,364.96 74.01,364.96 74.41,364.96 74.81,364.96 75.21,364.96 75.61,364.96 76.01,364.96 76.41,364.96 76.81,364.96 77.21,364.96 77.61,364.96 78.01,364.96 78.41,364.95 78.81,364.95 79.21,364.95 79.61,364.95 80.01,364.95 80.42,364.95 80.82,364.95 81.22,364.95 81.62,364.95 82.02,364.95 82.42,364.95 82.82,364.95 83.22,364.95 83.62,364.95 84.02,364.95 84.42,364.95 84.82,364.95 85.22,364.95 85.62,364.95 86.02,364.95 86.42,364.95 86.82,364.95 87.23,364.95 87.63,364.95 88.03,364.95 88.43,364.95 88.83,364.95 89.23,364.95 89.63,364.95 90.03,364.95 90.43,364.95 90.83,364.95 91.23,364.95 91.63,364.95 92.03,364.95 92.43,364.95 92.83,364.95 93.23,364.95 93.63,364.95 94.04,364.95 94.44,364.95 94.84,364.95 95.24,364.95 95.64,364.95 96.04,364.95 96.44,364.95 96.84,364.95 97.24,364.95 97.64,364.95 98.04,364.94 98.44,364.95 98.84,364.95 99.24,364.95 99.64,364.87 100.04,364.95 100.44,364.95 100.85,364.95 101.25,364.90 101.65,364.90 102.05,364.95 102.45,364.95 102.85,364.95 103.25,364.95 103.65,364.95 104.05,364.86 104.45,364.95 104.85,364.95 105.25,364.95 105.65,364.95 106.05,364.84 106.45,364.95 106.85,364.95 107.25,364.94 107.66,364.95 108.06,364.95 108.46,364.95 108.86,364.95 109.26,364.95 109.66,364.89 110.06,364.75 110.46,364.77 110.86,364.95 111.26,364.85 111.66,364.87 112.06,364.95 112.46,364.94 112.86,364.85 113.26,364.84 113.66,364.77 114.06,364.95 114.47,364.85 114.87,364.95 115.27,364.77 115.67,364.75 116.07,364.84 116.47,364.79 116.87,364.79 117.27,364.70 117.67,364.64 118.07,364.71 118.47,364.72 118.87,364.77 119.27,364.67 119.67,364.67 120.07,364.63 120.47,364.83 120.87,364.66 121.28,364.71 121.68,364.65 122.08,364.47 122.48,364.54 122.88,364.55 123.28,364.55 123.68,364.48 124.08,364.60 124.48,364.67 124.88,364.59 125.28,364.54 125.68,364.44 126.08,364.51 126.48,364.70 126.88,364.36 127.28,364.38 127.68,364.33 128.09,364.35 128.49,364.46 128.89,364.45 129.29,364.31 129.69,364.36 130.09,364.37 130.49,364.25 130.89,364.31 131.29,364.35 131.69,364.27 132.09,364.23 132.49,364.18 132.89,364.16 133.29,364.07 133.69,364.02 134.09,364.04 134.49,364.02 134.89,364.08 135.30,363.85 135.70,363.95 136.10,363.83 136.50,363.82 136.90,363.82 137.30,363.80 137.70,363.99 138.10,363.91 138.50,363.89 138.90,363.66 139.30,363.58 139.70,363.81 140.10,363.72 140.50,363.79 140.90,363.51 141.30,363.55 141.70,363.60 142.11,363.59 142.51,363.42 142.91,363.66 143.31,363.53 143.71,363.11 144.11,363.37 144.51,363.39 144.91,363.59 145.31,363.36 145.71,363.02 146.11,363.05 146.51,363.35 146.91,363.15 147.31,363.44 147.71,363.12 148.11,363.00 148.51,363.24 148.92,362.85 149.32,363.05 149.72,362.78 150.12,362.93 150.52,362.80 150.92,362.84 151.32,362.50 151.72,362.67 152.12,362.34 152.52,362.46 152.92,362.47 153.32,362.38 153.72,362.38 154.12,362.44 154.52,362.16 154.92,362.26 155.32,362.09 155.73,361.98 156.13,361.91 156.53,361.91 156.93,361.89 157.33,361.91 157.73,361.79 158.13,361.74 158.53,361.34 158.93,361.43 159.33,361.62 159.73,361.47 160.13,361.31 160.53,361.45 160.93,361.33 161.33,361.42 161.73,361.18 162.13,361.39 162.54,361.21 162.94,361.06 163.34,361.01 163.74,360.77 164.14,360.89 164.54,360.97 164.94,360.73 165.34,360.42 165.74,360.43 166.14,360.36 166.54,360.52 166.94,360.69 167.34,360.30 167.74,360.21 168.14,360.09 168.54,360.06 168.94,360.12 169.35,359.77 169.75,360.06 170.15,359.70 170.55,359.67 170.95,359.59 171.35,359.50 171.75,359.70 172.15,359.05 172.55,359.27 172.95,358.98 173.35,359.23 173.75,358.77 174.15,359.28 174.55,359.20 174.95,358.82 175.35,358.44 175.75,358.02 176.16,358.71 176.56,358.40 176.96,358.56 177.36,358.27 177.76,358.08 178.16,357.71 178.56,358.30 178.96,358.30 179.36,357.81 179.76,357.80 180.16,357.54 180.56,357.35 180.96,357.44 181.36,357.46 181.76,357.12 182.16,357.19 182.56,357.19 182.97,356.48 183.37,356.56 183.77,356.56 184.17,356.45 184.57,356.20 184.97,356.61 185.37,356.66 185.77,356.30 186.17,356.23 186.57,355.84 186.97,355.60 187.37,355.42 187.77,355.57 188.17,355.35 188.57,355.54 188.97,355.36 189.37,355.30 189.78,355.18 190.18,354.91 190.58,355.14 190.98,354.71 191.38,354.83 191.78,354.21 192.18,353.99 192.58,353.99 192.98,353.67 193.38,354.27 193.78,353.78 194.18,353.75 194.58,353.20 194.98,353.62 195.38,352.94 195.78,353.24 196.18,353.26 196.59,352.88 196.99,352.39 197.39,352.44 197.79,352.16 198.19,352.50 198.59,351.91 198.99,351.59 199.39,352.03 199.79,351.79 200.19,351.81 200.59,351.23 200.99,351.35 201.39,350.80 201.79,350.92 202.19,351.26 202.59,351.00 202.99,350.76 203.40,350.13 203.80,350.05 204.20,349.91 204.60,350.00 205.00,349.48 205.40,349.63 205.80,349.84 206.20,349.17 206.60,348.80 207.00,348.73 207.40,349.07 207.80,348.52 208.20,347.90 208.60,348.01 209.00,347.68 209.40,347.42 209.80,347.23 210.21,347.29 210.61,347.59 211.01,347.47 211.41,347.10 211.81,346.83 212.21,346.37 212.61,346.44 213.01,346.54 213.41,345.71 213.81,345.66 214.21,345.97 214.61,344.82 215.01,345.17 215.41,345.47 215.81,345.03 216.21,344.70 216.61,344.30 217.02,344.31 217.42,343.90 217.82,343.52 218.22,344.37 218.62,343.41 219.02,343.50 219.42,343.01 219.82,342.67 220.22,342.69 220.62,342.75 221.02,341.93 221.42,342.35 221.82,342.00 222.22,341.58 222.62,341.07 223.02,341.31 223.42,340.71 223.83,340.51 224.23,340.81 224.63,340.48 225.03,339.77 225.43,339.64 225.83,339.23 226.23,339.19 226.63,338.95 227.03,338.76 227.43,338.16 227.83,337.79 228.23,338.44 228.63,338.29 229.03,337.61 229.43,336.93 229.83,337.11 230.23,336.67 230.64,336.46 231.04,336.62 231.44,336.08 231.84,336.01 232.24,335.16 232.64,335.37 233.04,334.17 233.44,334.49 233.84,334.34 234.24,334.15 234.64,334.00 235.04,333.68 235.44,333.57 235.84,332.75 236.24,332.98 236.64,332.45 237.04,331.77 237.45,332.62 237.85,331.80 238.25,331.83 238.65,331.36 239.05,331.05 239.45,330.32 239.85,330.64 240.25,330.07 240.65,330.08 241.05,329.38 241.45,328.88 241.85,329.39 242.25,328.84 242.65,328.80 243.05,328.77 243.45,328.42 243.85,327.91 244.26,327.69 244.66,327.42 245.06,327.34 245.46,326.64 245.86,326.37 246.26,326.18 246.66,325.94 247.06,325.50 247.46,325.14 247.86,325.07 248.26,324.37 248.66,324.16 249.06,324.07 249.46,323.80 249.86,323.49 250.26,323.08 250.66,322.92 251.06,322.33 251.47,322.31 251.87,321.98 252.27,321.84 252.67,320.96 253.07,320.54 253.47,320.01 253.87,320.02 254.27,319.90 254.67,319.45 255.07,319.31 255.47,319.28 255.87,318.97 256.27,318.07 256.67,317.87 257.07,317.66 257.47,317.35 257.87,316.59 258.28,316.63 258.68,316.57 259.08,315.89 259.48,315.48 259.88,315.62 260.28,314.97 260.68,314.94 261.08,314.18 261.48,314.08 261.88,314.20 262.28,313.43 262.68,313.17 263.08,313.02 263.48,312.60 263.88,312.31 264.28,311.78 264.68,311.55 265.09,310.94 265.49,310.79 265.89,310.33 266.29,309.97 266.69,309.62 267.09,309.38 267.49,309.34 267.89,308.72 268.29,308.05 268.69,308.14 269.09,307.88 269.49,307.69 269.89,307.37 270.29,307.12 270.69,306.75 271.09,306.29 271.49,305.95 271.90,305.61 272.30,305.66 272.70,305.00 273.10,304.61 273.50,304.01 273.90,304.38 274.30,303.84 274.70,303.54 275.10,303.56 275.50,303.33 275.90,303.04 276.30,303.02 276.70,302.20 277.10,301.86 277.50,301.43 277.90,301.16 278.30,301.44 278.71,300.89 279.11,300.37 279.51,300.30 279.91,299.30 280.31,299.11 280.71,298.89 281.11,298.68 281.51,297.89 281.91,297.68 282.31,297.26 282.71,296.59 283.11,296.62 283.51,296.44 283.91,296.15 284.31,295.16 284.71,295.27 285.11,296.01 285.52,294.57 285.92,294.73 286.32,294.08 286.72,293.50 287.12,293.75 287.52,293.39 287.92,292.78 288.32,292.30 288.72,292.12 289.12,291.78 289.52,291.66 289.92,291.30 290.32,290.80 290.72,290.52 291.12,289.87 291.52,289.54 291.92,289.82 292.33,289.55 292.73,288.98 293.13,288.88 293.53,288.34 293.93,288.48 294.33,288.01 294.73,287.40 295.13,287.16 295.53,286.79 295.93,286.38 296.33,286.62 296.73,286.15 297.13,285.47 297.53,285.31 297.93,284.89 298.33,285.11 298.73,284.34 299.14,284.33 299.54,284.33 299.94,284.22 300.34,283.72 300.74,282.98 301.14,282.87 301.54,283.40 301.94,282.47 302.34,282.36 302.74,281.91 303.14,281.38 303.54,281.47 303.94,280.82 304.34,280.99 304.74,280.85 305.14,280.39 305.54,279.70 305.95,279.33 306.35,279.29 306.75,279.36 307.15,279.01 307.55,279.17 307.95,278.47 308.35,278.61 308.75,277.56 309.15,278.22 309.55,277.43 309.95,277.48 310.35,277.16 310.75,276.78 311.15,276.83 311.55,276.66 311.95,276.17 312.35,275.85 312.76,275.63 313.16,275.58 313.56,275.55 313.96,275.16 314.36,275.31 314.76,274.56 315.16,274.94 315.56,274.80 315.96,275.06 316.36,274.18 316.76,274.64 317.16,274.00 317.56,273.47 317.96,273.76 318.36,273.62 318.76,273.16 319.16,272.56 319.57,272.93 319.97,272.87 320.37,273.01 320.77,273.00 321.17,272.39 321.57,272.00 321.97,271.84 322.37,271.80 322.77,271.09 323.17,270.87 323.57,270.77 323.97,270.75 324.37,270.58 324.77,269.42 325.17,269.23 325.57,269.10 325.97,268.58 326.38,268.46 326.78,268.02 327.18,268.10 327.58,267.09 327.98,267.24 328.38,266.67 328.78,266.03 329.18,265.75 329.58,265.36 329.98,265.05 330.38,264.44 330.78,264.34 331.18,263.65 331.58,263.46 331.98,263.38 332.38,262.58 332.78,262.79 333.19,261.88 333.59,262.50 333.99,261.55 334.39,261.52 334.79,261.11 335.19,260.35 335.59,260.08 335.99,259.87 336.39,259.53 336.79,258.95 337.19,258.67 337.59,258.16 337.99,258.04 338.39,257.57 338.79,257.39 339.19,256.59 339.59,256.33 340.00,256.34 340.40,255.96 340.80,255.55 341.20,255.82 341.60,255.45 342.00,255.31 342.40,254.50 342.80,254.43 343.20,254.04 343.60,253.01 344.00,253.40 344.40,252.27 344.80,252.21 345.20,252.16 345.60,251.46 346.00,251.44 346.40,250.96 346.81,250.55 347.21,250.54 347.61,250.11 348.01,249.74 348.41,249.62 348.81,249.93 349.21,248.99 349.61,248.88 350.01,248.12 350.41,248.34 350.81,248.32 351.21,247.69 351.61,247.52 352.01,246.80 352.41,246.97 352.81,246.49 353.21,245.79 353.62,245.51 354.02,245.54 354.42,244.97 354.82,244.29 355.22,244.31 355.62,244.07 356.02,243.54 356.42,243.32 356.82,243.48 357.22,242.73 357.62,242.99 358.02,242.73 358.42,242.17 358.82,241.85 359.22,241.56 359.62,240.94 360.02,241.12 360.43,240.40 360.83,240.49 361.23,240.50 361.63,239.69 362.03,239.88 362.43,239.46 362.83,239.09 363.23,239.77 363.63,239.68 364.03,238.94 364.43,239.47 364.83,238.79 365.23,238.57 365.63,237.82 366.03,237.79 366.43,237.81 366.83,237.27 367.23,237.19 367.64,236.45 368.04,235.70 368.44,236.07 368.84,235.62 369.24,235.32 369.64,235.21 370.04,234.87 370.44,235.00 370.84,234.32 371.24,234.08 371.64,233.26 372.04,233.63 372.44,233.64 372.84,232.76 373.24,232.55 373.64,232.39 374.04,232.37 374.45,232.13 374.85,231.73 375.25,231.58 375.65,231.83 376.05,230.91 376.45,231.59 376.85,230.84 377.25,230.44 377.65,231.41 378.05,230.54 378.45,230.27 378.85,230.00 379.25,230.14 379.65,229.44 380.05,229.60 380.45,229.79 380.85,230.27 381.26,229.11 381.66,229.12 382.06,228.52 382.46,228.42 382.86,227.73 383.26,227.92 383.66,227.75 384.06,227.43 384.46,226.90 384.86,226.65 385.26,227.02 385.66,226.29 386.06,225.87 386.46,225.72 386.86,225.29 387.26,225.17 387.66,224.90 388.07,225.18 388.47,224.35 388.87,225.04 389.27,224.33 389.67,224.21 390.07,223.72 390.47,223.76 390.87,223.15 391.27,223.20 391.67,223.11 392.07,222.62 392.47,222.42 392.87,222.26 393.27,222.58 393.67,222.07 394.07,222.51 394.47,221.83 394.88,222.11 395.28,222.59 395.68,221.61 396.08,221.81 396.48,221.66 396.88,221.01 397.28,221.26 397.68,221.33 398.08,221.10 398.48,220.94 398.88,220.92 399.28,221.22 399.68,220.30 400.08,219.99 400.48,219.90 400.88,219.86 401.28,219.76 401.69,219.11 402.09,219.49 402.49,218.97 402.89,218.79 403.29,218.74 403.69,217.99 404.09,217.99 404.49,217.92 404.89,217.34 405.29,217.01 405.69,217.11 406.09,216.62 406.49,216.81 406.89,216.43 407.29,216.20 407.69,216.26 408.09,215.71 408.50,215.61 408.90,215.11 409.30,215.32 409.70,214.90 410.10,214.84 410.50,214.63 410.90,214.15 411.30,213.99 411.70,213.14 412.10,213.75 412.50,213.59 412.90,213.73 413.30,212.95 413.70,213.06 414.10,213.01 414.50,212.61 414.90,212.63 415.31,212.39 415.71,211.72 416.11,211.58 416.51,211.70 416.91,211.14 417.31,211.21 417.71,210.87 418.11,210.67 418.51,209.70 418.91,209.93 419.31,209.94 419.71,210.13 420.11,209.79 420.51,209.17 420.91,209.57 421.31,208.82 421.71,208.38 422.12,208.27 422.52,208.37 422.92,207.55 423.32,208.08 423.72,207.02 424.12,207.35 424.52,206.80 424.92,206.72 425.32,206.44 425.72,206.59 426.12,206.59 426.52,205.77 426.92,205.72 427.32,206.05 427.72,205.95 428.12,205.47 428.52,205.23 428.93,205.25 429.33,205.13 429.73,205.04 430.13,204.93 430.53,204.30 430.93,204.15 431.33,203.91 431.73,203.63 432.13,203.36 432.53,203.04 432.93,202.47 433.33,202.71 433.73,202.11 434.13,201.56 434.53,202.06 434.93,201.35 435.33,201.10 435.74,201.19 436.14,201.22 436.54,200.49 436.94,200.26 437.34,200.22 437.74,200.15 438.14,200.25 438.54,200.42 438.94,199.87 439.34,200.20 439.74,200.31 440.14,199.91 440.54,199.53 440.94,199.82 441.34,199.58 441.74,199.15 442.14,198.87 442.55,198.80 442.95,198.21 443.35,198.17 443.75,198.15 444.15,197.85 444.55,197.82 444.95,197.87 445.35,197.78 445.75,197.21 446.15,197.71 446.55,197.64 446.95,197.45 447.35,197.64 447.75,197.41 448.15,197.56 448.55,197.48 448.95,197.38 449.36,197.45 449.76,197.54 450.16,197.54 450.56,197.65 450.96,197.82 451.36,198.20 451.76,198.60 452.16,198.83 452.56,198.83 452.96,199.24 453.36,199.71 453.76,199.34 454.16,199.48 454.56,199.57 454.96,199.00 455.36,199.38 455.76,199.44 456.17,199.39 456.57,199.92 456.97,199.62 457.37,199.06 457.77,199.18 458.17,198.94 458.57,199.13 458.97,199.18 459.37,198.71 459.77,198.58 460.17,198.30 460.57,198.35 460.97,198.10 461.37,197.72 461.77,197.56 462.17,197.33 462.57,196.96 462.98,196.92 463.38,196.21 463.78,196.13 464.18,196.01 464.58,195.81 464.98,195.45 465.38,195.25 465.78,195.08 466.18,194.96 466.58,194.41 466.98,194.46 467.38,194.19 467.78,193.98 468.18,193.48 468.58,193.54 468.98,192.97 469.38,192.92 469.79,192.56 470.19,192.44 470.59,192.25 470.99,192.23 471.39,191.95 471.79,191.62 472.19,191.41 472.59,190.95 472.99,190.68 473.39,190.49 473.79,190.24 474.19,190.05 474.59,189.94 474.99,189.39 475.39,189.17 475.79,189.29 476.19,189.39 476.60,189.25 477.00,188.91 477.40,188.74 477.80,188.64 478.20,188.27 478.60,188.03 479.00,187.34 479.40,187.35 479.80,186.97 480.20,186.62 480.60,186.21 481.00,186.16 481.40,185.71 481.80,185.70 482.20,185.29 482.60,184.88 483.00,185.19 483.40,185.09 483.81,185.11 484.21,185.17 484.61,184.66 485.01,184.60 485.41,184.19 485.81,183.86 486.21,183.56 486.61,183.33 487.01,182.88 487.41,182.64 487.81,182.33 488.21,181.89 488.61,181.73 489.01,181.36 489.41,181.02 489.81,180.56 490.21,180.54 490.62,180.44 491.02,180.24 491.42,179.95 491.82,179.69 492.22,179.74 492.62,179.53 493.02,179.59 493.42,179.74 493.82,179.66 494.22,179.35 494.62,179.37 495.02,178.98 495.42,178.84 495.82,178.28 496.22,178.08 496.62,177.83 497.02,177.35 497.43,177.42 497.83,176.83 498.23,176.15 498.63,176.02 499.03,175.97 499.43,175.36 499.83,174.96 500.23,174.77 500.63,174.68 501.03,174.36 501.43,174.00 501.83,173.92 502.23,173.63 502.63,173.49 503.03,173.07 503.43,172.83 503.83,172.32 504.24,172.20 504.64,171.91 505.04,172.10 505.44,171.87 505.84,171.57 506.24,171.40 506.64,171.70 507.04,172.19 507.44,172.03 507.84,172.02 508.24,172.11 508.64,171.96 509.04,172.06 509.44,171.35 509.84,171.11 510.24,170.77 510.64,170.11 511.05,170.36 511.45,169.66 511.85,169.22 512.25,169.09 512.65,168.71 513.05,168.29 513.45,168.11 513.85,167.57 514.25,167.33 514.65,167.13 515.05,166.43 515.45,166.45 515.85,165.80 516.25,165.66 516.65,165.36 517.05,164.95 517.45,164.59 517.86,164.53 518.26,164.32 518.66,164.56 519.06,164.21 519.46,164.03 519.86,163.73 520.26,163.63 520.66,163.19 521.06,162.93 521.46,162.54 521.86,162.47 522.26,162.08 522.66,162.37 523.06,161.81 523.46,161.74 523.86,161.71 524.26,161.35 524.67,161.08 525.07,161.40 525.47,161.15 525.87,161.15 526.27,161.84 526.67,162.14 527.07,162.72 527.47,162.33 527.87,162.05 528.27,161.94 528.67,161.46 529.07,161.11 529.47,161.21 529.87,160.43 530.27,160.46 530.67,160.07 531.07,159.78 531.48,159.50 531.88,159.01 532.28,158.59 532.68,158.22 533.08,158.03 533.48,157.75 533.88,157.32 534.28,156.84 534.68,157.02 535.08,156.52 535.48,156.09 535.88,155.78 536.28,155.55 536.68,155.15 537.08,154.65 537.48,154.33 537.88,154.34 538.29,153.95 538.69,153.73 539.09,153.27 539.49,153.17 539.89,153.00 540.29,152.84 540.69,152.28 541.09,152.23 541.49,152.12 541.89,151.72 542.29,151.77 542.69,151.23 543.09,151.43 543.49,151.21 543.89,151.10 544.29,151.07 544.69,150.90 545.10,150.49 545.50,150.35 545.90,150.01 546.30,149.96 546.70,149.65 547.10,149.37 547.50,149.16 547.90,148.77 548.30,149.04 548.70,148.82 549.10,148.70 549.50,148.54 549.90,148.09 550.30,148.08 550.70,147.81 551.10,147.88 551.50,147.67 551.91,147.76 552.31,147.55 552.71,147.65 553.11,147.71 553.51,147.95 553.91,147.85 554.31,147.65 554.71,147.40 555.11,147.37 555.51,147.15 555.91,146.69 556.31,146.77 556.71,146.21 557.11,145.88 557.51,145.57 557.91,145.70 558.31,145.34 558.72,144.91 559.12,144.96 559.52,144.82 559.92,144.72 560.32,144.44 560.72,144.55 561.12,143.86 561.52,143.78 561.92,143.45 562.32,143.36 562.72,143.03 563.12,142.55 563.52,142.34 563.92,141.90 564.32,141.73 564.72,141.72 565.12,141.52 565.53,141.18 565.93,140.99 566.33,140.59 566.73,140.48 567.13,140.50 567.53,140.02 567.93,139.91 568.33,139.69 568.73,139.46 569.13,139.26 569.53,138.72 569.93,138.65 570.33,138.38 570.73,138.01 571.13,137.93 571.53,137.62 571.93,137.43 572.34,137.25 572.74,136.83 573.14,136.66 573.54,136.33 573.94,136.03 574.34,135.97 574.74,135.82 575.14,135.64 575.54,135.45 575.94,135.27 576.34,135.28 576.74,135.24 577.14,134.97 577.54,135.14 577.94,134.94 578.34,134.86 578.74,134.75 579.15,134.60 579.55,134.37 579.95,134.44 580.35,134.08 580.75,134.16 581.15,134.00 581.55,133.53 581.95,133.61 582.35,133.29 582.75,133.32 583.15,133.10 583.55,132.62 583.95,132.72 584.35,132.60 584.75,132.29 585.15,132.25 585.55,132.13 585.96,131.63 586.36,131.84 586.76,131.59 587.16,131.51 587.56,131.41 587.96,131.16 588.36,131.13 588.76,131.14 589.16,130.62 589.56,130.40 589.96,130.25 590.36,130.32 590.76,130.04 591.16,129.83 591.56,129.55 591.96,129.63 592.36,129.47 592.77,129.19 593.17,128.94 593.57,128.70 593.97,128.59 594.37,128.43 594.77,128.39 595.17,128.11 595.57,128.06 595.97,127.95 596.37,127.71 596.77,127.60 597.17,127.64 597.57,127.74 597.97,127.03 598.37,126.96 598.77,126.68 599.17,126.68 599.57,126.62 599.98,126.53 600.38,126.34 600.78,125.90 601.18,125.88 601.58,125.91 601.98,125.84 602.38,125.79 602.78,125.54 603.18,125.56 603.58,125.55 603.98,125.50 604.38,125.25 604.78,125.64 605.18,125.39 605.58,125.14 605.98,125.24 606.38,124.96 606.79,125.05 607.19,125.16 607.59,124.90 607.99,124.63 608.39,124.21 608.79,124.37 609.19,124.03 609.59,124.21 609.99,123.96 610.39,123.56 610.79,123.69 611.19,123.27 611.59,123.34 611.99,123.03 612.39,122.82 612.79,122.63 613.19,122.32 613.60,122.42 614.00,122.04 614.40,122.01 614.80,121.81 615.20,121.64 615.60,121.58 616.00,121.14 616.40,120.88 616.80,120.97 617.20,120.57 617.60,120.50 618.00,120.46 618.40,120.36 618.80,120.04 619.20,119.75 619.60,119.74 620.00,119.44 620.41,119.57 620.81,119.10 621.21,118.86 621.61,118.67 622.01,118.52 622.41,118.49 622.81,118.35 623.21,118.08 623.61,118.04 624.01,117.99 624.41,117.87 624.81,117.50 625.21,117.24 625.61,117.37 626.01,117.00 626.41,116.83 626.81,116.58 627.22,116.25 627.62,116.11 628.02,115.93 628.42,115.86 628.82,115.86 629.22,115.91 629.62,115.36 630.02,115.34 630.42,115.38 630.82,115.29 631.22,115.12 631.62,115.16 632.02,114.98 632.42,114.98 632.82,114.77 633.22,114.81 633.62,114.57 634.03,114.33 634.43,114.41 634.83,114.23 635.23,114.08 635.63,113.60 636.03,113.94 636.43,114.17 636.83,113.58 637.23,113.69 637.63,113.41 638.03,113.33 638.43,113.34 638.83,113.03 639.23,112.92 639.63,113.03 640.03,113.06 640.43,112.91 640.84,112.20 641.24,112.41 641.64,112.47 642.04,112.33 642.44,112.33 642.84,112.05 643.24,112.17 643.64,111.71 644.04,111.56 644.44,111.85 644.84,111.46 645.24,111.71 645.64,111.42 646.04,111.16 646.44,111.08 646.84,111.27 647.24,110.90 647.65,111.09 648.05,110.90 648.45,111.19 648.85,110.95 649.25,110.40 649.65,111.00 650.05,110.78 650.45,110.86 650.85,110.72 651.25,110.63 651.65,110.81 652.05,111.07 652.45,110.88 652.85,111.01 653.25,111.75 653.65,111.82 654.05,111.68 654.46,111.72 654.86,112.01 655.26,112.56 655.66,112.13 656.06,112.30 656.46,112.25 656.86,112.00 657.26,112.20 657.66,111.97 658.06,111.91 658.46,112.05 658.86,111.68 659.26,111.49 659.66,112.32 660.06,112.00 660.46,111.56 660.86,111.48 661.27,111.51 661.67,111.49 662.07,111.27 662.47,111.62 662.87,111.12 663.27,111.15 663.67,111.01 664.07,110.36 664.47,110.38 664.87,109.89 665.27,110.48 665.67,110.34 666.07,110.00 666.47,109.40 666.87,110.03 667.27,109.65 667.67,109.29 668.08,109.20 668.48,109.64 668.88,109.03 669.28,109.09 669.68,108.87 670.08,108.18 670.48,108.03 670.88,108.38 671.28,107.58 671.68,107.51 672.08,107.78 672.48,107.50 672.88,107.45 673.28,107.45 673.68,107.14 674.08,107.34 674.48,107.47 674.89,106.82 675.29,106.65 675.69,106.49 676.09,105.74 676.49,106.15 676.89,106.17 677.29,105.12 677.69,105.46 678.09,105.46 678.49,105.32 678.89,104.63 679.29,104.57 679.69,105.02 680.09,104.56 680.49,104.93 680.89,104.78 681.29,104.64 681.70,104.77 682.10,103.98 682.50,104.10 682.90,103.50 683.30,103.42 683.70,103.78 684.10,103.49 684.50,103.03 684.90,102.41 685.30,102.11 685.70,102.40 686.10,102.64 686.50,102.10 686.90,101.91 687.30,101.62 687.70,102.03 688.10,101.11 688.51,101.83 688.91,101.23 689.31,100.98 689.71,100.72 690.11,100.50 690.51,100.83 690.91,101.54 691.31,101.38 691.71,101.38 692.11,101.08 692.51,100.75 692.91,101.23 693.31,100.56 693.71,100.27 694.11,100.37 694.51,100.16 694.91,100.31 695.32,99.35 695.72,99.16 696.12,99.60 696.52,99.29 696.92,98.25 697.32,98.48 697.72,98.35 698.12,98.54 698.52,97.98 698.92,97.87 699.32,98.17 699.72,97.70 700.12,97.83 700.52,98.03 700.92,97.67 701.32,97.35 701.72,97.06 702.13,97.25 702.53,96.94 702.93,96.80 703.33,96.77 703.73,96.72 704.13,97.19 704.53,97.00 704.93,97.16 705.33,97.58 705.73,98.10 706.13,97.69 706.53,97.41 706.93,97.50 707.33,97.64 707.73,96.45 708.13,96.32 708.53,96.71 708.94,96.31 709.34,95.96 709.74,95.43 710.14,94.99 710.54,94.30 710.94,95.03 711.34,94.42 711.74,94.71 712.14,94.39 712.54,94.59 712.94,94.38 713.34,94.02 713.74,94.05 714.14,94.02 714.54,93.93 714.94,94.35 715.34,93.98 715.74,93.43 716.15,94.26 716.55,94.17 716.95,93.22 717.35,93.54 717.75,93.30 718.15,93.41 718.55,93.72 718.95,93.01 719.35,93.13 719.75,93.22 720.15,93.13 720.55,92.78 720.95,93.24 721.35,92.62 721.75,93.11 722.15,92.27 722.55,92.49 722.96,92.30 723.36,92.78 723.76,92.58 724.16,92.67 724.56,92.22 724.96,92.56 725.36,92.02 725.76,92.12 726.16,91.91 726.56,92.51 726.96,92.82 727.36,92.43 727.76,91.85 728.16,91.89 728.56,92.01 728.96,92.14 729.36,92.55 729.77,92.13 730.17,91.67 730.57,91.95 730.97,92.09 731.37,91.83 731.77,92.00 732.17,92.22 732.57,92.49 732.97,91.47 733.37,91.83 733.77,91.28 734.17,91.64 734.57,92.09 734.97,91.61 735.37,91.07 735.77,92.06 736.17,92.38 736.58,91.90 736.98,92.80 737.38,91.29 737.78,91.09 738.18,92.10 738.58,91.52 738.98,92.07 739.38,91.47 739.78,91.51 740.18,91.16 740.58,91.42 740.98,90.30 741.38,90.65 741.78,91.36 742.18,91.27 742.58,91.45 742.98,91.17 743.39,90.24 743.79,90.64 744.19,90.29 744.59,90.35 744.99,90.31 745.39,90.39 745.79,90.48 746.19,89.25 746.59,90.77 746.99,89.57 747.39,90.53 747.79,89.81 748.19,89.37 748.59,89.99 748.99,89.22 749.39,89.84 749.79,89.77 750.20,89.36 750.60,89.42 751.00,88.78 751.40,88.12 751.80,88.57 752.20,88.11 752.60,88.45 753.00,87.74 753.40,88.24 753.80,88.48 754.20,87.57 754.60,87.56 755.00,88.15 755.40,87.84 755.80,87.83 756.20,87.61 756.60,88.51 757.01,88.00 757.41,87.76 757.81,86.81 758.21,86.52 758.61,86.91 759.01,86.23 759.41,86.50 759.81,87.76 760.21,86.75 760.61,87.56 761.01,85.85 761.41,86.48 761.81,86.39 762.21,86.39 762.61,86.94 763.01,85.82 763.41,86.13 763.82,86.52 764.22,87.11 764.62,86.88 765.02,87.50 765.42,87.87 765.82,87.12 766.22,85.92 766.62,86.56 767.02,87.47 767.42,88.18 767.82,87.02 768.22,87.61 768.62,87.71 769.02,87.54 769.42,87.72 769.82,86.49 770.22,86.56 770.63,87.07 771.03,87.10 771.43,86.80 771.83,87.51 772.23,85.98 772.63,87.08 773.03,86.56 773.43,86.72 773.83,87.01 774.23,86.80 774.63,86.18 775.03,86.12 775.43,86.24 775.83,87.62 776.23,87.07 776.63,86.36 777.03,87.14 777.44,87.11 777.84,86.82 778.24,87.88 778.64,87.86 779.04,86.84 779.44,86.78 779.84,87.24 780.24,87.53 780.64,87.59 781.04,88.53 781.44,87.80 781.84,88.56 782.24,89.02 782.64,88.30 783.04,87.34 783.44,88.85 783.84,87.16 784.25,87.94 784.65,88.18 785.05,88.08 785.45,88.59 785.85,88.70 786.25,89.91 786.65,90.23 787.05,90.29 787.45,90.42 787.85,89.68 788.25,90.15 788.65,89.62 789.05,90.21 789.45,91.35 789.85,91.79 790.25,91.67 790.65,92.26 791.06,91.34 791.46,92.86 791.86,92.64 792.26,94.53 792.66,94.22 793.06,94.41 793.46,94.22 793.86,94.92 794.26,95.29 794.66,94.46 795.06,95.04 795.46,96.97 795.86,96.58 796.26,98.43 796.66,96.98 797.06,97.42 797.46,96.66 797.87,95.43 798.27,96.77 798.67,95.74 799.07,96.91 799.47,96.79 799.87,95.51 800.27,94.69 800.67,98.14 801.07,94.80 801.47,95.03 801.87,96.33 802.27,95.47 802.67,96.49 803.07,96.58 803.47,94.45 803.87,95.47 804.27,96.55 804.68,96.44 805.08,96.83 805.48,94.54 805.88,95.98 806.28,94.14 806.68,93.61 807.08,94.86 807.48,93.39 807.88,94.18 808.28,95.56 808.68,94.61 809.08,95.37 809.48,95.42 809.88,95.85 810.28,94.46 810.68,92.16 811.08,92.95 811.49,94.13 811.89,91.91 812.29,93.59 812.69,93.35 813.09,94.69 813.49,93.97 813.89,92.20 814.29,92.12 814.69,92.48 815.09,92.91 815.49,91.94 815.89,92.84 816.29,93.00 816.69,91.92 817.09,93.03 817.49,92.11 817.89,91.61 818.30,91.89 818.70,89.71 819.10,90.80 819.50,89.12 819.90,90.44 820.30,88.77 820.70,89.84 821.10,89.16 821.50,89.59 821.90,88.98 822.30,88.20 822.70,89.87 823.10,88.43 823.50,88.31 823.90,89.80 824.30,88.03 824.70,89.25 825.11,87.89 825.51,87.63 825.91,86.24 826.31,86.40 826.71,86.84 827.11,86.25 827.51,86.01 827.91,87.12 828.31,84.63 828.71,84.06 829.11,84.11 829.51,86.08 829.91,87.83 830.31,86.68 830.71,86.19 831.11,85.65 831.51,88.24 831.91,86.36 832.32,86.42 832.72,87.53 833.12,86.70 833.52,86.85 833.92,85.47 834.32,87.04 834.72,84.64 835.12,84.46 835.52,84.76 835.92,86.12 836.32,84.29 836.72,84.33 837.12,85.11 837.52,84.60 837.92,84.49 838.32,83.51 838.72,84.54 839.13,83.14 839.53,82.97 839.93,83.54 840.33,82.79 840.73,81.55 841.13,80.84 841.53,81.55 841.93,80.72 842.33,80.16 842.73,80.57 843.13,81.11 843.53,80.58 843.93,79.82 844.33,78.34 844.73,81.87 845.13,79.10 845.53,81.19 845.94,78.89 846.34,78.19 846.74,78.39 847.14,77.68 847.54,78.60 847.94,77.00 848.34,78.14 848.74,78.07 849.14,77.29 849.54,77.33 849.94,76.73 850.34,75.96 850.74,77.93 851.14,76.52 851.54,75.68 851.94,76.45 852.34,77.87 852.75,75.68 853.15,74.59 853.55,76.59 853.95,75.82 854.35,75.73 854.75,73.93 855.15,76.50 855.55,76.21 855.95,77.87 856.35,76.01 856.75,77.03 857.15,77.93 857.55,77.77 857.95,78.14 858.35,79.78 858.75,79.53 859.15,77.92 859.56,78.94 859.96,79.13 860.36,79.67 860.76,78.97 861.16,79.69 861.56,78.38 861.96,80.39 862.36,79.18 862.76,77.10 863.16,79.57 863.56,79.89 863.96,77.26 864.36,78.64 864.76,77.29 865.16,78.52 865.56,79.06 865.96,78.57 866.37,76.06 866.77,75.34 867.17,74.78 867.57,75.77 867.97,75.58 868.37,76.52 868.77,75.69 869.17,74.63 869.57,73.97 869.97,74.39 870.37,72.79 870.77,75.18 871.17,75.47 871.57,71.64 871.97,72.36 872.37,71.45 872.77,72.12 873.18,72.61 873.58,70.58 873.98,71.33 874.38,72.72 874.78,71.77 875.18,69.65 875.58,71.30 875.98,69.85 876.38,69.67 876.78,71.39 877.18,70.72 877.58,70.87 877.98,68.87 878.38,70.26 878.78,70.12 879.18,69.52 879.58,67.11 879.99,68.30 880.39,68.71 880.79,66.63 881.19,68.12 881.59,66.12 881.99,67.69 882.39,66.98 882.79,67.54 883.19,65.47 883.59,65.84 883.99,66.82 884.39,65.46 884.79,66.75 885.19,68.01 885.59,66.86 885.99,66.52 886.39,65.44 886.80,64.07 887.20,65.06 887.60,66.58 888.00,65.09 888.40,64.35 888.80,64.39 889.20,66.01 889.60,64.61 890.00,64.84 890.00,137.47 889.60,138.55 889.20,136.16 888.80,139.55 888.40,140.28 888.00,139.31 887.60,137.03 887.20,140.02 886.80,142.51 886.39,140.33 885.99,138.78 885.59,138.52 885.19,136.77 884.79,139.14 884.39,141.90 883.99,139.37 883.59,141.33 883.19,142.41 882.79,139.19 882.39,140.29 881.99,139.40 881.59,142.86 881.19,139.56 880.79,142.69 880.39,139.48 879.99,140.73 879.58,143.32 879.18,139.35 878.78,138.54 878.38,138.71 877.98,141.40 877.58,138.34 877.18,138.87 876.78,138.19 876.38,141.64 875.98,141.82 875.58,139.73 875.18,142.91 874.78,139.73 874.38,138.50 873.98,141.40 873.58,143.26 873.18,140.20 872.77,141.41 872.37,143.02 871.97,142.01 871.57,143.74 871.17,137.74 870.77,138.60 870.37,142.96 869.97,140.60 869.57,141.73 869.17,141.35 868.77,139.94 868.37,139.18 867.97,141.24 867.57,140.97 867.17,143.12 866.77,142.63 866.37,141.84 865.96,138.43 865.56,138.16 865.16,139.08 864.76,141.52 864.36,139.78 863.96,142.90 863.56,138.50 863.16,139.40 862.76,143.92 862.36,140.70 861.96,139.02 861.56,142.75 861.16,141.11 860.76,142.67 860.36,141.64 859.96,142.67 859.56,143.73 859.15,145.50 858.75,143.19 858.35,142.84 857.95,145.90 857.55,146.36 857.15,145.45 856.75,147.01 856.35,148.52 855.95,145.62 855.55,148.59 855.15,148.30 854.75,153.50 854.35,150.34 853.95,150.61 853.55,149.52 853.15,154.07 852.75,151.95 852.34,148.17 851.94,150.98 851.54,152.89 851.14,151.92 850.74,149.57 850.34,153.87 849.94,152.84 849.54,152.25 849.14,152.57 848.74,151.63 848.34,151.68 847.94,154.73 847.54,152.07 847.14,154.15 846.74,153.23 846.34,153.72 845.94,152.96 845.53,149.25 845.13,153.42 844.73,149.08 844.33,156.08 843.93,153.87 843.53,153.04 843.13,152.71 842.73,153.83 842.33,155.11 841.93,154.31 841.53,153.40 841.13,155.14 840.73,154.46 840.33,152.77 839.93,152.29 839.53,153.45 839.13,153.63 838.72,151.55 838.32,153.84 837.92,152.82 837.52,153.12 837.12,152.60 836.72,154.23 836.32,154.63 835.92,152.24 835.52,155.08 835.12,155.97 834.72,156.56 834.32,152.31 833.92,155.67 833.52,153.76 833.12,154.23 832.72,153.14 832.32,155.40 831.91,156.25 831.51,153.25 831.11,157.98 830.71,157.72 830.31,157.27 829.91,154.78 829.51,158.23 829.11,162.30 828.71,162.60 828.31,161.99 827.91,157.69 827.51,159.96 827.11,160.02 826.71,159.33 826.31,160.43 825.91,161.45 825.51,158.98 825.11,159.28 824.70,156.88 824.30,159.70 823.90,156.69 823.50,159.60 823.10,159.66 822.70,157.73 822.30,161.34 821.90,160.46 821.50,159.82 821.10,161.01 820.70,160.17 820.30,163.03 819.90,160.35 819.50,163.31 819.10,160.84 818.70,163.52 818.30,159.90 817.89,160.83 817.49,160.47 817.09,159.35 816.69,161.95 816.29,160.36 815.89,161.19 815.49,163.19 815.09,161.95 814.69,163.08 814.29,163.93 813.89,164.46 813.49,161.62 813.09,161.15 812.69,163.07 812.29,163.58 811.89,166.87 811.49,163.22 811.08,165.72 810.68,167.49 810.28,163.73 809.88,161.34 809.48,162.99 809.08,163.19 808.68,164.83 808.28,163.93 807.88,166.23 807.48,168.43 807.08,166.41 806.68,169.42 806.28,168.47 805.88,165.57 805.48,167.97 805.08,164.95 804.68,165.54 804.27,166.18 803.87,168.47 803.47,171.12 803.07,167.26 802.67,167.31 802.27,168.98 801.87,168.53 801.47,170.88 801.07,171.90 800.67,165.23 800.27,173.09 799.87,171.66 799.47,169.17 799.07,169.04 798.67,171.82 798.27,170.60 797.87,173.76 797.46,171.48 797.06,170.04 796.66,171.37 796.26,168.83 795.86,172.38 795.46,171.36 795.06,176.28 794.66,176.09 794.26,174.68 793.86,175.16 793.46,176.61 793.06,175.72 792.66,176.48 792.26,176.20 791.86,179.95 791.46,179.95 791.06,183.39 790.65,180.92 790.25,182.50 789.85,181.41 789.45,182.68 789.05,185.06 788.65,185.54 788.25,184.52 787.85,186.38 787.45,183.98 787.05,183.93 786.65,185.07 786.25,185.02 785.85,188.23 785.45,188.39 785.05,189.32 784.65,188.49 784.25,189.06 783.84,191.88 783.44,187.41 783.04,192.10 782.64,189.19 782.24,187.29 781.84,189.58 781.44,191.72 781.04,189.73 780.64,192.60 780.24,192.65 779.84,193.89 779.44,195.66 779.04,195.24 778.64,192.48 778.24,192.31 777.84,195.83 777.44,195.53 777.03,195.02 776.63,197.13 776.23,195.74 775.83,194.18 775.43,197.00 775.03,199.27 774.63,198.25 774.23,196.98 773.83,197.00 773.43,198.14 773.03,198.99 772.63,197.26 772.23,201.52 771.83,195.99 771.43,199.49 771.03,198.89 770.63,199.80 770.22,201.13 769.82,201.48 769.42,199.48 769.02,200.01 768.62,199.62 768.22,199.75 767.82,202.04 767.42,198.02 767.02,200.55 766.62,204.53 766.22,206.58 765.82,203.07 765.42,200.58 765.02,202.71 764.62,203.98 764.22,203.17 763.82,203.50 763.41,205.67 763.01,206.88 762.61,202.29 762.21,204.58 761.81,205.58 761.41,205.54 761.01,207.74 760.61,201.88 760.21,205.50 759.81,202.81 759.41,207.49 759.01,209.89 758.61,207.53 758.21,209.88 757.81,209.13 757.41,205.59 757.01,205.18 756.60,204.24 756.20,207.60 755.80,207.46 755.40,207.38 755.00,206.59 754.60,209.20 754.20,209.49 753.80,206.45 753.40,207.64 753.00,210.34 752.60,207.95 752.20,209.94 751.80,208.64 751.40,211.42 751.00,209.26 750.60,207.17 750.20,208.62 749.79,206.68 749.39,207.71 748.99,209.95 748.59,207.71 748.19,211.04 747.79,209.91 747.39,207.30 746.99,211.50 746.59,207.68 746.19,214.54 745.79,209.14 745.39,210.00 744.99,211.70 744.59,211.67 744.19,211.67 743.79,213.02 743.39,214.49 742.98,211.10 742.58,209.86 742.18,211.24 741.78,211.03 741.38,213.45 740.98,215.75 740.58,212.09 740.18,213.41 739.78,212.42 739.38,212.87 738.98,211.76 738.58,214.20 738.18,212.31 737.78,216.71 737.38,216.26 736.98,211.04 736.58,214.34 736.17,212.84 735.77,215.79 735.37,219.90 734.97,215.84 734.57,215.26 734.17,217.34 733.77,218.19 733.37,215.39 732.97,217.67 732.57,214.21 732.17,214.63 731.77,215.75 731.37,216.35 730.97,216.81 730.57,217.02 730.17,218.74 729.77,217.47 729.36,216.51 728.96,217.71 728.56,217.83 728.16,219.65 727.76,220.03 727.36,217.86 726.96,216.45 726.56,218.10 726.16,222.15 725.76,222.26 725.36,222.50 724.96,220.07 724.56,222.80 724.16,220.31 723.76,222.19 723.36,220.47 722.96,222.24 722.55,221.93 722.15,222.53 721.75,218.57 721.35,221.45 720.95,218.60 720.55,222.26 720.15,222.07 719.75,221.09 719.35,221.37 718.95,223.41 718.55,220.07 718.15,221.62 717.75,223.68 717.35,223.98 716.95,225.92 716.55,221.21 716.15,222.07 715.74,226.74 715.34,222.95 714.94,223.97 714.54,225.31 714.14,225.63 713.74,226.22 713.34,226.29 712.94,224.09 712.54,224.76 712.14,226.61 711.74,224.82 711.34,227.38 710.94,224.60 710.54,230.60 710.14,227.62 709.74,225.42 709.34,224.06 708.94,223.63 708.53,222.28 708.13,225.53 707.73,225.95 707.33,220.31 706.93,222.79 706.53,224.05 706.13,223.24 705.73,222.45 705.33,225.48 704.93,227.09 704.53,227.28 704.13,224.43 703.73,228.22 703.33,228.22 702.93,228.51 702.53,228.66 702.13,227.72 701.72,229.16 701.32,228.02 700.92,227.15 700.52,225.69 700.12,227.92 699.72,229.07 699.32,226.83 698.92,228.40 698.52,228.52 698.12,227.15 697.72,228.40 697.32,229.08 696.92,231.57 696.52,226.90 696.12,226.44 695.72,230.01 695.32,230.24 694.91,226.36 694.51,228.34 694.11,228.33 693.71,229.59 693.31,229.30 692.91,226.21 692.51,230.47 692.11,229.07 691.71,228.04 691.31,228.93 690.91,227.73 690.51,230.93 690.11,232.78 689.71,233.19 689.31,230.91 688.91,231.60 688.51,227.65 688.10,232.74 687.70,228.26 687.30,232.92 686.90,231.28 686.50,231.86 686.10,228.54 685.70,231.44 685.30,235.50 684.90,232.96 684.50,231.44 684.10,230.61 683.70,229.17 683.30,232.73 682.90,233.23 682.50,231.39 682.10,232.59 681.70,230.34 681.29,231.75 680.89,231.07 680.49,230.75 680.09,232.39 679.69,230.57 679.29,233.93 678.89,234.49 678.49,231.40 678.09,232.04 677.69,233.00 677.29,235.15 676.89,229.84 676.49,232.05 676.09,235.19 675.69,231.03 675.29,231.64 674.89,232.92 674.48,230.44 674.08,232.79 673.68,234.40 673.28,233.55 672.88,233.95 672.48,235.26 672.08,233.10 671.68,235.48 671.28,236.89 670.88,232.52 670.48,236.26 670.08,235.88 669.68,232.05 669.28,232.48 668.88,233.94 668.48,233.21 668.08,235.45 667.67,236.88 667.27,232.91 666.87,232.25 666.47,238.65 666.07,233.86 665.67,233.21 665.27,235.40 664.87,237.34 664.47,234.95 664.07,239.29 663.67,234.74 663.27,235.37 662.87,233.58 662.47,234.28 662.07,236.18 661.67,236.46 661.27,235.88 660.86,236.37 660.46,238.04 660.06,237.33 659.66,235.06 659.26,239.53 658.86,238.83 658.46,237.98 658.06,237.18 657.66,238.89 657.26,238.61 656.86,238.06 656.46,237.47 656.06,237.09 655.66,237.97 655.26,237.21 654.86,237.88 654.46,239.75 654.05,237.20 653.65,237.68 653.25,237.51 652.85,242.03 652.45,243.53 652.05,242.95 651.65,242.95 651.25,243.88 650.85,243.95 650.45,241.79 650.05,245.04 649.65,243.16 649.25,247.41 648.85,244.89 648.45,241.86 648.05,243.55 647.65,244.13 647.24,247.89 646.84,245.67 646.44,245.74 646.04,247.59 645.64,245.70 645.24,244.79 644.84,246.54 644.44,245.31 644.04,248.18 643.64,246.72 643.24,245.54 642.84,247.58 642.44,246.48 642.04,248.90 641.64,248.07 641.24,246.72 640.84,250.36 640.43,246.41 640.03,245.06 639.63,246.58 639.23,249.42 638.83,249.32 638.43,246.85 638.03,249.86 637.63,249.23 637.23,247.02 636.83,253.36 636.43,244.95 636.03,247.10 635.63,251.27 635.23,249.13 634.83,248.39 634.43,249.06 634.03,250.62 633.62,249.81 633.22,249.29 632.82,250.02 632.42,251.05 632.02,252.53 631.62,250.67 631.22,250.41 630.82,251.05 630.42,250.59 630.02,252.06 629.62,253.86 629.22,249.89 628.82,251.56 628.42,250.96 628.02,253.35 627.62,252.22 627.22,253.62 626.81,251.74 626.41,250.53 626.01,251.28 625.61,249.69 625.21,251.77 624.81,252.93 624.41,251.11 624.01,250.73 623.61,251.40 623.21,251.64 622.81,250.73 622.41,252.39 622.01,251.23 621.61,253.51 621.21,252.94 620.81,252.53 620.41,250.06 620.00,253.58 619.60,252.77 619.20,252.75 618.80,252.44 618.40,250.97 618.00,251.85 617.60,253.22 617.20,253.60 616.80,250.12 616.40,254.13 616.00,252.85 615.60,251.68 615.20,251.82 614.80,253.22 614.40,253.30 614.00,253.76 613.60,251.99 613.19,254.72 612.79,252.73 612.39,254.89 611.99,253.99 611.59,252.14 611.19,256.23 610.79,250.99 610.39,254.37 609.99,253.20 609.59,252.05 609.19,254.58 608.79,254.79 608.39,254.73 607.99,253.45 607.59,251.14 607.19,251.50 606.79,254.35 606.38,252.53 605.98,254.64 605.58,255.52 605.18,253.99 604.78,251.77 604.38,255.56 603.98,256.05 603.58,255.18 603.18,255.00 602.78,256.60 602.38,255.90 601.98,254.72 601.58,256.57 601.18,257.17 600.78,258.57 600.38,256.96 599.98,254.85 599.57,254.79 599.17,256.18 598.77,258.42 598.37,259.55 597.97,257.51 597.57,253.28 597.17,255.70 596.77,258.76 596.37,260.86 595.97,259.24 595.57,259.36 595.17,260.64 594.77,257.13 594.37,258.12 593.97,258.34 593.57,256.47 593.17,256.41 592.77,256.63 592.36,255.16 591.96,256.02 591.56,259.01 591.16,257.65 590.76,258.37 590.36,257.80 589.96,260.41 589.56,259.54 589.16,259.31 588.76,255.28 588.36,257.36 587.96,259.06 587.56,258.17 587.16,257.87 586.76,258.25 586.36,258.37 585.96,264.69 585.55,258.59 585.15,259.80 584.75,260.50 584.35,259.41 583.95,259.94 583.55,262.84 583.15,259.56 582.75,260.28 582.35,260.29 581.95,260.52 581.55,262.33 581.15,259.21 580.75,259.40 580.35,259.98 579.95,258.88 579.55,261.48 579.15,261.69 578.74,259.87 578.34,259.16 577.94,259.42 577.54,260.11 577.14,262.53 576.74,259.46 576.34,260.05 575.94,262.70 575.54,261.06 575.14,261.53 574.74,260.53 574.34,262.43 573.94,263.98 573.54,263.46 573.14,263.33 572.74,262.65 572.34,259.11 571.93,259.96 571.53,261.23 571.13,259.63 570.73,261.44 570.33,260.84 569.93,260.25 569.53,262.72 569.13,259.63 568.73,260.87 568.33,260.63 567.93,261.93 567.53,262.97 567.13,260.44 566.73,262.27 566.33,264.17 565.93,261.37 565.53,262.09 565.12,261.32 564.72,261.55 564.32,263.67 563.92,264.42 563.52,261.57 563.12,263.31 562.72,260.90 562.32,261.57 561.92,263.37 561.52,263.07 561.12,264.98 560.72,259.56 560.32,262.68 559.92,260.24 559.52,262.33 559.12,260.97 558.72,265.01 558.31,263.05 557.91,262.32 557.51,263.55 557.11,264.94 556.71,264.37 556.31,261.90 555.91,263.96 555.51,263.41 555.11,263.70 554.71,264.89 554.31,263.62 553.91,263.33 553.51,262.01 553.11,264.01 552.71,263.03 552.31,265.06 551.91,264.24 551.50,266.44 551.10,265.13 550.70,267.96 550.30,265.68 549.90,266.95 549.50,263.98 549.10,265.15 548.70,265.99 548.30,265.81 547.90,270.73 547.50,265.68 547.10,268.18 546.70,265.28 546.30,265.64 545.90,268.50 545.50,267.09 545.10,266.64 544.69,265.75 544.29,264.92 543.89,267.54 543.49,266.31 543.09,264.64 542.69,268.88 542.29,265.66 541.89,267.84 541.49,265.35 541.09,268.19 540.69,270.17 540.29,265.72 539.89,266.76 539.49,267.26 539.09,269.50 538.69,266.64 538.29,268.24 537.88,265.44 537.48,269.03 537.08,268.27 536.68,267.25 536.28,266.16 535.88,266.82 535.48,266.85 535.08,264.55 534.68,264.37 534.28,268.61 533.88,267.32 533.48,266.58 533.08,266.96 532.68,268.68 532.28,268.37 531.88,267.60 531.48,266.11 531.07,267.09 530.67,266.41 530.27,265.84 529.87,268.85 529.47,265.58 529.07,268.21 528.67,268.09 528.27,266.54 527.87,266.98 527.47,267.12 527.07,266.22 526.67,267.39 526.27,266.73 525.87,269.66 525.47,269.91 525.07,267.28 524.67,272.29 524.26,271.14 523.86,268.11 523.46,270.11 523.06,272.10 522.66,269.23 522.26,273.22 521.86,270.29 521.46,271.86 521.06,270.88 520.66,271.31 520.26,268.92 519.86,269.68 519.46,271.28 519.06,271.20 518.66,268.21 518.26,271.96 517.86,272.23 517.45,275.02 517.05,272.39 516.65,272.29 516.25,271.56 515.85,272.83 515.45,269.83 515.05,273.31 514.65,269.32 514.25,270.70 513.85,271.50 513.45,269.79 513.05,271.39 512.65,271.21 512.25,271.19 511.85,272.66 511.45,271.69 511.05,269.72 510.64,272.36 510.24,271.34 509.84,271.93 509.44,271.82 509.04,268.65 508.64,270.81 508.24,272.28 507.84,274.67 507.44,271.74 507.04,271.80 506.64,273.98 506.24,274.85 505.84,273.61 505.44,273.08 505.04,272.13 504.64,276.57 504.24,276.00 503.83,276.04 503.43,274.86 503.03,275.43 502.63,273.83 502.23,275.71 501.83,274.77 501.43,274.98 501.03,273.77 500.63,273.30 500.23,275.63 499.83,275.15 499.43,275.51 499.03,273.94 498.63,275.09 498.23,275.84 497.83,274.59 497.43,272.78 497.02,274.55 496.62,275.76 496.22,274.97 495.82,276.42 495.42,274.73 495.02,275.03 494.62,274.25 494.22,277.27 493.82,275.39 493.42,275.71 493.02,275.66 492.62,274.79 492.22,275.74 491.82,277.58 491.42,277.06 491.02,277.71 490.62,277.27 490.21,278.64 489.81,280.90 489.41,280.36 489.01,279.01 488.61,277.79 488.21,279.31 487.81,277.86 487.41,277.71 487.01,277.31 486.61,278.39 486.21,278.28 485.81,278.62 485.41,278.45 485.01,277.91 484.61,280.64 484.21,277.93 483.81,279.33 483.40,279.75 483.00,279.25 482.60,281.36 482.20,283.08 481.80,280.97 481.40,282.22 481.00,279.69 480.60,283.26 480.20,280.85 479.80,280.97 479.40,280.05 479.00,281.75 478.60,280.20 478.20,280.73 477.80,280.74 477.40,282.16 477.00,280.75 476.60,281.45 476.19,281.50 475.79,282.42 475.39,282.67 474.99,283.85 474.59,281.74 474.19,283.27 473.79,284.95 473.39,283.83 472.99,283.10 472.59,283.64 472.19,284.53 471.79,285.75 471.39,284.62 470.99,283.67 470.59,284.75 470.19,285.43 469.79,283.92 469.38,288.10 468.98,286.97 468.58,284.53 468.18,285.28 467.78,284.96 467.38,285.79 466.98,287.96 466.58,287.59 466.18,287.80 465.78,286.46 465.38,288.06 464.98,286.38 464.58,286.73 464.18,288.39 463.78,287.68 463.38,289.92 462.98,287.63 462.57,289.35 462.17,289.88 461.77,287.68 461.37,290.29 460.97,288.02 460.57,288.28 460.17,290.56 459.77,288.83 459.37,290.35 458.97,289.82 458.57,293.07 458.17,293.22 457.77,292.44 457.37,292.29 456.97,293.81 456.57,291.89 456.17,294.99 455.76,294.04 455.36,293.87 454.96,295.75 454.56,295.00 454.16,296.40 453.76,298.46 453.36,297.10 452.96,297.75 452.56,297.14 452.16,297.95 451.76,297.61 451.36,300.34 450.96,300.67 450.56,302.05 450.16,302.53 449.76,304.28 449.36,302.18 448.95,303.14 448.55,303.93 448.15,304.88 447.75,304.27 447.35,306.45 446.95,305.21 446.55,305.72 446.15,307.01 445.75,303.63 445.35,307.91 444.95,308.80 444.55,306.52 444.15,307.04 443.75,308.04 443.35,307.52 442.95,308.35 442.55,309.04 442.14,308.67 441.74,308.37 441.34,309.63 440.94,310.31 440.54,307.75 440.14,309.46 439.74,311.24 439.34,310.91 438.94,309.23 438.54,311.08 438.14,311.83 437.74,311.57 437.34,312.21 436.94,311.49 436.54,311.68 436.14,314.77 435.74,313.45 435.33,312.50 434.93,312.74 434.53,314.95 434.13,312.27 433.73,313.65 433.33,315.58 432.93,312.05 432.53,312.98 432.13,313.78 431.73,313.41 431.33,313.51 430.93,313.74 430.53,314.46 430.13,314.38 429.73,313.87 429.33,314.62 428.93,315.36 428.52,313.97 428.12,315.06 427.72,316.97 427.32,316.74 426.92,314.71 426.52,314.79 426.12,317.28 425.72,316.94 425.32,315.02 424.92,316.01 424.52,315.90 424.12,318.33 423.72,315.38 423.32,319.58 422.92,316.02 422.52,318.42 422.12,317.40 421.71,317.13 421.31,317.98 420.91,319.92 420.51,316.80 420.11,319.00 419.71,320.18 419.31,319.39 418.91,318.90 418.51,316.59 418.11,320.04 417.71,319.93 417.31,320.73 416.91,319.59 416.51,321.64 416.11,319.59 415.71,319.43 415.31,321.16 414.90,321.04 414.50,320.42 414.10,321.12 413.70,320.44 413.30,320.28 412.90,322.92 412.50,322.36 412.10,322.58 411.70,319.76 411.30,322.50 410.90,322.60 410.50,323.92 410.10,323.62 409.70,323.04 409.30,323.48 408.90,321.74 408.50,322.62 408.09,322.25 407.69,324.16 407.29,323.56 406.89,323.36 406.49,324.62 406.09,322.67 405.69,323.89 405.29,323.03 404.89,323.52 404.49,325.03 404.09,323.97 403.69,322.67 403.29,325.07 402.89,324.27 402.49,323.99 402.09,325.15 401.69,323.42 401.28,323.91 400.88,324.32 400.48,323.97 400.08,323.27 399.68,324.12 399.28,326.52 398.88,326.44 398.48,325.62 398.08,325.74 397.68,326.45 397.28,325.58 396.88,324.35 396.48,325.97 396.08,326.14 395.68,324.91 395.28,328.84 394.88,327.05 394.47,326.32 394.07,328.68 393.67,327.21 393.27,328.85 392.87,327.60 392.47,327.52 392.07,327.84 391.67,328.68 391.27,328.45 390.87,328.04 390.47,329.07 390.07,328.60 389.67,329.50 389.27,329.20 388.87,330.85 388.47,328.62 388.07,330.16 387.66,329.20 387.26,329.48 386.86,329.14 386.46,329.70 386.06,329.10 385.66,329.54 385.26,330.91 384.86,329.28 384.46,329.67 384.06,330.49 383.66,330.34 383.26,330.53 382.86,328.96 382.46,330.11 382.06,329.72 381.66,330.70 381.26,329.75 380.85,332.86 380.45,330.68 380.05,330.51 379.65,329.64 379.25,331.97 378.85,331.35 378.45,331.68 378.05,332.66 377.65,334.32 377.25,331.11 376.85,332.01 376.45,333.87 376.05,331.48 375.65,334.00 375.25,332.26 374.85,332.45 374.45,333.04 374.04,333.42 373.64,333.08 373.24,333.43 372.84,333.38 372.44,334.98 372.04,334.43 371.64,332.77 371.24,334.69 370.84,334.27 370.44,335.21 370.04,334.31 369.64,334.18 369.24,333.84 368.84,333.82 368.44,334.09 368.04,332.10 367.64,333.19 367.23,334.39 366.83,333.52 366.43,334.41 366.03,333.55 365.63,332.57 365.23,334.35 364.83,334.13 364.43,335.27 364.03,333.05 363.63,334.80 363.23,335.42 362.83,333.58 362.43,334.95 362.03,335.75 361.63,334.67 361.23,336.17 360.83,335.63 360.43,334.40 360.02,335.96 359.62,334.60 359.22,335.85 358.82,335.76 358.42,335.78 358.02,336.92 357.62,336.87 357.22,335.64 356.82,336.79 356.42,335.28 356.02,335.47 355.62,336.00 355.22,335.81 354.82,334.76 354.42,335.91 354.02,336.56 353.62,335.17 353.21,334.84 352.81,336.14 352.41,336.72 352.01,334.73 351.61,335.94 351.21,335.14 350.81,336.57 350.41,335.97 350.01,335.46 349.61,337.10 349.21,336.81 348.81,338.83 348.41,337.55 348.01,337.07 347.61,337.13 347.21,337.51 346.81,336.91 346.40,337.39 346.00,337.98 345.60,336.77 345.20,338.09 344.80,337.07 344.40,336.49 344.00,338.58 343.60,336.09 343.20,338.33 342.80,337.94 342.40,337.13 342.00,338.33 341.60,337.47 341.20,337.92 340.80,336.87 340.40,338.07 340.00,338.40 339.59,337.86 339.19,337.68 338.79,339.20 338.39,339.01 337.99,339.77 337.59,339.19 337.19,339.26 336.79,338.90 336.39,339.47 335.99,338.68 335.59,338.90 335.19,338.89 334.79,339.83 334.39,339.82 333.99,339.10 333.59,341.08 333.19,338.55 332.78,339.95 332.38,338.51 331.98,340.05 331.58,339.74 331.18,338.99 330.78,340.19 330.38,339.53 329.98,340.00 329.58,339.66 329.18,340.02 328.78,339.77 328.38,340.87 327.98,341.83 327.58,340.70 327.18,342.18 326.78,341.17 326.38,341.31 325.97,340.58 325.57,341.48 325.17,341.01 324.77,340.53 324.37,342.41 323.97,342.63 323.57,342.39 323.17,342.12 322.77,342.35 322.37,343.20 321.97,343.31 321.57,342.94 321.17,343.52 320.77,344.28 320.37,344.24 319.97,343.91 319.57,344.17 319.16,342.79 318.76,344.40 318.36,345.59 317.96,345.84 317.56,345.22 317.16,345.73 316.76,347.30 316.36,345.95 315.96,347.92 315.56,346.92 315.16,346.99 314.76,346.81 314.36,348.01 313.96,347.54 313.56,348.57 313.16,349.14 312.76,349.05 312.35,349.14 311.95,349.37 311.55,349.69 311.15,350.36 310.75,350.06 310.35,350.51 309.95,350.79 309.55,350.37 309.15,351.45 308.75,349.81 308.35,351.38 307.95,350.68 307.55,351.66 307.15,351.27 306.75,351.46 306.35,351.06 305.95,350.73 305.54,351.07 305.14,352.09 304.74,352.66 304.34,352.46 303.94,351.71 303.54,352.63 303.14,352.18 302.74,352.62 302.34,353.13 301.94,352.82 301.54,354.15 301.14,352.74 300.74,352.49 300.34,353.38 299.94,353.84 299.54,353.59 299.14,353.28 298.73,352.92 298.33,353.92 297.93,353.20 297.53,353.80 297.13,353.95 296.73,354.53 296.33,354.78 295.93,354.04 295.53,354.13 295.13,354.05 294.73,354.23 294.33,354.68 293.93,355.17 293.53,354.44 293.13,354.91 292.73,354.86 292.33,355.30 291.92,355.58 291.52,354.64 291.12,354.79 290.72,355.38 290.32,355.51 289.92,355.81 289.52,355.93 289.12,355.59 288.72,355.38 288.32,355.27 287.92,355.55 287.52,355.86 287.12,356.04 286.72,355.14 286.32,355.52 285.92,356.20 285.52,355.47 285.11,357.42 284.71,355.87 284.31,355.27 283.91,356.47 283.51,356.48 283.11,356.62 282.71,356.20 282.31,356.65 281.91,356.91 281.51,356.90 281.11,357.53 280.71,357.19 280.31,356.88 279.91,356.66 279.51,357.58 279.11,357.33 278.71,357.62 278.30,357.93 277.90,357.01 277.50,356.77 277.10,357.17 276.70,356.87 276.30,358.19 275.90,357.91 275.50,357.88 275.10,358.30 274.70,358.13 274.30,358.39 273.90,358.82 273.50,358.16 273.10,358.44 272.70,358.65 272.30,359.24 271.90,358.66 271.49,359.08 271.09,359.12 270.69,359.35 270.29,359.49 269.89,359.48 269.49,359.58 269.09,359.65 268.69,359.68 268.29,359.42 267.89,359.86 267.49,360.23 267.09,360.13 266.69,359.81 266.29,359.85 265.89,359.79 265.49,360.05 265.09,359.89 264.68,360.16 264.28,359.96 263.88,360.43 263.48,360.17 263.08,360.42 262.68,360.21 262.28,360.23 261.88,360.99 261.48,360.43 261.08,360.04 260.68,360.90 260.28,360.59 259.88,361.20 259.48,360.84 259.08,361.31 258.68,361.80 258.28,361.81 257.87,361.14 257.47,361.80 257.07,361.80 256.67,361.66 256.27,361.66 255.87,362.32 255.47,362.45 255.07,362.11 254.67,362.09 254.27,362.28 253.87,362.04 253.47,362.12 253.07,362.30 252.67,362.55 252.27,363.31 251.87,362.97 251.47,363.05 251.06,362.77 250.66,363.44 250.26,363.30 249.86,363.37 249.46,363.34 249.06,363.41 248.66,363.14 248.26,363.16 247.86,363.61 247.46,363.65 247.06,363.75 246.66,363.87 246.26,363.92 245.86,364.01 245.46,364.19 245.06,364.60 244.66,364.71 244.26,364.93 243.85,365.00 243.45,365.00 243.05,365.00 242.65,365.00 242.25,365.00 241.85,365.00 241.45,365.00 241.05,365.00 240.65,365.00 240.25,365.00 239.85,365.00 239.45,365.00 239.05,365.00 238.65,365.00 238.25,365.00 237.85,365.00 237.45,365.00 237.04,365.00 236.64,365.00 236.24,365.00 235.84,365.00 235.44,365.00 235.04,365.00 234.64,365.00 234.24,365.00 233.84,365.00 233.44,365.00 233.04,365.00 232.64,365.00 232.24,365.00 231.84,365.00 231.44,365.00 231.04,365.00 230.64,365.00 230.23,365.00 229.83,365.00 229.43,365.00 229.03,365.00 228.63,365.00 228.23,365.00 227.83,365.00 227.43,365.00 227.03,365.00 226.63,365.00 226.23,365.00 225.83,365.00 225.43,365.00 225.03,365.00 224.63,365.00 224.23,365.00 223.83,365.00 223.42,365.00 223.02,365.00 222.62,365.00 222.22,365.00 221.82,365.00 221.42,365.00 221.02,365.00 220.62,365.00 220.22,365.00 219.82,365.00 219.42,365.00 219.02,365.00 218.62,365.00 218.22,365.00 217.82,365.00 217.42,365.00 217.02,365.00 216.61,365.00 216.21,365.00 215.81,365.00 215.41,365.00 215.01,365.00 214.61,365.00 214.21,365.00 213.81,365.00 213.41,365.00 213.01,365.00 212.61,365.00 212.21,365.00 211.81,365.00 211.41,365.00 211.01,365.00 210.61,365.00 210.21,365.00 209.80,365.00 209.40,365.00 209.00,365.00 208.60,365.00 208.20,365.00 207.80,365.00 207.40,365.00 207.00,365.00 206.60,365.00 206.20,365.00 205.80,365.00 205.40,365.00 205.00,365.00 204.60,365.00 204.20,365.00 203.80,365.00 203.40,365.00 202.99,365.00 202.59,365.00 202.19,365.00 201.79,365.00 201.39,365.00 200.99,365.00 200.59,365.00 200.19,365.00 199.79,365.00 199.39,365.00 198.99,365.00 198.59,365.00 198.19,365.00 197.79,365.00 197.39,365.00 196.99,365.00 196.59,365.00 196.18,365.00 195.78,365.00 195.38,365.00 194.98,365.00 194.58,365.00 194.18,365.00 193.78,365.00 193.38,365.00 192.98,365.00 192.58,365.00 192.18,365.00 191.78,365.00 191.38,365.00 190.98,365.00 190.58,365.00 190.18,365.00 189.78,365.00 189.37,365.00 188.97,365.00 188.57,365.00 188.17,365.00 187.77,365.00 187.37,365.00 186.97,365.00 186.57,365.00 186.17,365.00 185.77,365.00 185.37,365.00 184.97,365.00 184.57,365.00 184.17,365.00 183.77,365.00 183.37,365.00 182.97,365.00 182.56,365.00 182.16,365.00 181.76,365.00 181.36,365.00 180.96,365.00 180.56,365.00 180.16,365.00 179.76,365.00 179.36,365.00 178.96,365.00 178.56,365.00 178.16,365.00 177.76,365.00 177.36,365.00 176.96,365.00 176.56,365.00 176.16,365.00 175.75,365.00 175.35,365.00 174.95,365.00 174.55,365.00 174.15,365.00 173.75,365.00 173.35,365.00 172.95,365.00 172.55,365.00 172.15,365.00 171.75,365.00 171.35,365.00 170.95,365.00 170.55,365.00 170.15,365.00 169.75,365.00 169.35,365.00 168.94,365.00 168.54,365.00 168.14,365.00 167.74,365.00 167.34,365.00 166.94,365.00 166.54,365.00 166.14,365.00 165.74,365.00 165.34,365.00 164.94,365.00 164.54,365.00 164.14,365.00 163.74,365.00 163.34,365.00 162.94,365.00 162.54,365.00 162.13,365.00 161.73,365.00 161.33,365.00 160.93,365.00 160.53,365.00 160.13,365.00 159.73,365.00 159.33,365.00 158.93,365.00 158.53,365.00 158.13,365.00 157.73,365.00 157.33,365.00 156.93,365.00 156.53,365.00 156.13,365.00 155.73,365.00 155.32,365.00 154.92,365.00 154.52,365.00 154.12,365.00 153.72,365.00 153.32,365.00 152.92,365.00 152.52,365.00 152.12,365.00 151.72,365.00 151.32,365.00 150.92,365.00 150.52,365.00 150.12,365.00 149.72,365.00 149.32,365.00 148.92,365.00 148.51,365.00 148.11,365.00 147.71,365.00 147.31,365.00 146.91,365.00 146.51,365.00 146.11,365.00 145.71,365.00 145.31,365.00 144.91,365.00 144.51,365.00 144.11,365.00 143.71,365.00 143.31,365.00 142.91,365.00 142.51,365.00 142.11,365.00 141.70,365.00 141.30,365.00 140.90,365.00 140.50,365.00 140.10,365.00 139.70,365.00 139.30,365.00 138.90,365.00 138.50,365.00 138.10,365.00 137.70,365.00 137.30,365.00 136.90,365.00 136.50,365.00 136.10,365.00 135.70,365.00 135.30,365.00 134.89,365.00 134.49,365.00 134.09,365.00 133.69,365.00 133.29,365.00 132.89,365.00 132.49,365.00 132.09,365.00 131.69,365.00 131.29,365.00 130.89,365.00 130.49,365.00 130.09,365.00 129.69,365.00 129.29,365.00 128.89,365.00 128.49,365.00 128.09,365.00 127.68,365.00 127.28,365.00 126.88,365.00 126.48,365.00 126.08,365.00 125.68,365.00 125.28,365.00 124.88,365.00 124.48,365.00 124.08,365.00 123.68,365.00 123.28,365.00 122.88,365.00 122.48,365.00 122.08,365.00 121.68,365.00 121.28,365.00 120.87,365.00 120.47,365.00 120.07,365.00 119.67,365.00 119.27,365.00 118.87,365.00 118.47,365.00 118.07,365.00 117.67,365.00 117.27,365.00 116.87,365.00 116.47,365.00 116.07,365.00 115.67,365.00 115.27,365.00 114.87,364.96 114.47,365.00 114.06,364.96 113.66,365.00 113.26,365.00 112.86,365.00 112.46,364.97 112.06,364.96 111.66,365.00 111.26,365.00 110.86,364.96 110.46,365.00 110.06,365.00 109.66,365.00 109.26,364.96 108.86,364.96 108.46,364.96 108.06,364.96 107.66,364.96 107.25,364.97 106.85,364.96 106.45,364.96 106.05,365.00 105.65,364.96 105.25,364.96 104.85,364.96 104.45,364.96 104.05,365.00 103.65,364.96 103.25,364.96 102.85,364.96 102.45,364.96 102.05,364.96 101.65,365.00 101.25,365.00 100.85,364.96 100.44,364.96 100.04,364.96 99.64,365.00 99.24,364.96 98.84,364.96 98.44,364.96 98.04,364.97 97.64,364.96 97.24,364.96 96.84,364.96 96.44,364.96 96.04,364.96 95.64,364.96 95.24,364.96 94.84,364.96 94.44,364.96 94.04,364.96 93.63,364.96 93.23,364.96 92.83,364.96 92.43,364.96 92.03,364.96 91.63,364.96 91.23,364.96 90.83,364.96 90.43,364.96 90.03,364.96 89.63,364.96 89.23,364.96 88.83,364.96 88.43,364.96 88.03,364.96 87.63,364.96 87.23,364.96 86.82,364.96 86.42,364.97 86.02,364.97 85.62,364.97 85.22,364.97 84.82,364.97 84.42,364.97 84.02,364.97 83.62,364.97 83.22,364.97 82.82,364.97 82.42,364.97 82.02,364.97 81.62,364.97 81.22,364.97 80.82,364.97 80.42,364.97 80.01,364.97 79.61,364.97 79.21,364.97 78.81,364.97 78.41,364.97 78.01,364.97 77.61,364.97 77.21,364.97 76.81,364.97 76.41,364.97 76.01,364.97 75.61,364.97 75.21,364.97 74.81,364.97 74.41,364.97 74.01,364.97 73.61,364.97 73.20,364.97 72.80,364.97 72.40,364.97 72.00,364.98 71.60,364.98 71.20,364.98 70.80,364.98 70.40,364.98 70.00,365.00" fill="#38bdf8" fill-opacity="0.18"/>
<path d="M 70.00,365.00 L 70.40,364.98 L 70.80,364.97 L 71.20,364.97 L 71.60,364.97 L 72.00,364.97 L 72.40,364.97 L 72.80,364.97 L 73.20,364.97 L 73.61,364.97 L 74.01,364.97 L 74.41,364.96 L 74.81,364.96 L 75.21,364.96 L 75.61,364.96 L 76.01,364.96 L 76.41,364.96 L 76.81,364.96 L 77.21,364.96 L 77.61,364.96 L 78.01,364.96 L 78.41,364.96 L 78.81,364.96 L 79.21,364.96 L 79.61,364.96 L 80.01,364.96 L 80.42,364.96 L 80.82,364.96 L 81.22,364.96 L 81.62,364.96 L 82.02,364.96 L 82.42,364.96 L 82.82,364.96 L 83.22,364.96 L 83.62,364.96 L 84.02,364.96 L 84.42,364.96 L 84.82,364.96 L 85.22,364.96 L 85.62,364.96 L 86.02,364.96 L 86.42,364.96 L 86.82,364.96 L 87.23,364.96 L 87.63,364.96 L 88.03,364.96 L 88.43,364.96 L 88.83,364.96 L 89.23,364.96 L 89.63,364.96 L 90.03,364.96 L 90.43,364.96 L 90.83,364.96 L 91.23,364.96 L 91.63,364.96 L 92.03,364.96 L 92.43,364.96 L 92.83,364.96 L 93.23,364.96 L 93.63,364.96 L 94.04,364.96 L 94.44,364.96 L 94.84,364.96 L 95.24,364.96 L 95.64,364.96 L 96.04,364.96 L 96.44,364.96 L 96.84,364.96 L 97.24,364.96 L 97.64,364.96 L 98.04,364.96 L 98.44,364.96 L 98.84,364.96 L 99.24,364.96 L 99.64,364.95 L 100.04,364.96 L 100.44,364.96 L 100.85,364.96 L 101.25,364.95 L 101.65,364.95 L 102.05,364.96 L 102.45,364.95 L 102.85,364.96 L 103.25,364.96 L 103.65,364.96 L 104.05,364.95 L 104.45,364.95 L 104.85,364.95 L 105.25,364.95 L 105.65,364.95 L 106.05,364.95 L 106.45,364.95 L 106.85,364.95 L 107.25,364.95 L 107.66,364.95 L 108.06,364.95 L 108.46,364.95 L 108.86,364.95 L 109.26,364.95 L 109.66,364.95 L 110.06,364.95 L 110.46,364.95 L 110.86,364.95 L 111.26,364.95 L 111.66,364.95 L 112.06,364.95 L 112.46,364.95 L 112.86,364.95 L 113.26,364.95 L 113.66,364.95 L 114.06,364.95 L 114.47,364.95 L 114.87,364.95 L 115.27,364.95 L 115.67,364.95 L 116.07,364.95 L 116.47,364.95 L 116.87,364.95 L 117.27,364.95 L 117.67,364.95 L 118.07,364.95 L 118.47,364.95 L 118.87,364.95 L 119.27,364.95 L 119.67,364.95 L 120.07,364.95 L 120.47,364.95 L 120.87,364.95 L 121.28,364.95 L 121.68,364.95 L 122.08,364.94 L 122.48,364.94 L 122.88,364.94 L 123.28,364.94 L 123.68,364.94 L 124.08,364.94 L 124.48,364.95 L 124.88,364.94 L 125.28,364.94 L 125.68,364.94 L 126.08,364.94 L 126.48,364.95 L 126.88,364.93 L 127.28,364.93 L 127.68,364.92 L 128.09,364.93 L 128.49,364.94 L 128.89,364.93 L 129.29,364.93 L 129.69,364.93 L 130.09,364.93 L 130.49,364.92 L 130.89,364.92 L 131.29,364.93 L 131.69,364.92 L 132.09,364.92 L 132.49,364.92 L 132.89,364.91 L 133.29,364.91 L 133.69,364.90 L 134.09,364.90 L 134.49,364.90 L 134.89,364.91 L 135.30,364.88 L 135.70,364.89 L 136.10,364.88 L 136.50,364.88 L 136.90,364.88 L 137.30,364.88 L 137.70,364.90 L 138.10,364.89 L 138.50,364.89 L 138.90,364.86 L 139.30,364.85 L 139.70,364.88 L 140.10,364.87 L 140.50,364.88 L 140.90,364.85 L 141.30,364.85 L 141.70,364.86 L 142.11,364.86 L 142.51,364.83 L 142.91,364.87 L 143.31,364.85 L 143.71,364.79 L 144.11,364.83 L 144.51,364.83 L 144.91,364.86 L 145.31,364.83 L 145.71,364.78 L 146.11,364.78 L 146.51,364.82 L 146.91,364.80 L 147.31,364.84 L 147.71,364.79 L 148.11,364.78 L 148.51,364.81 L 148.92,364.75 L 149.32,364.78 L 149.72,364.74 L 150.12,364.77 L 150.52,364.75 L 150.92,364.75 L 151.32,364.69 L 151.72,364.72 L 152.12,364.67 L 152.52,364.69 L 152.92,364.70 L 153.32,364.67 L 153.72,364.68 L 154.12,364.68 L 154.52,364.63 L 154.92,364.65 L 155.32,364.63 L 155.73,364.60 L 156.13,364.59 L 156.53,364.60 L 156.93,364.59 L 157.33,364.59 L 157.73,364.57 L 158.13,364.57 L 158.53,364.48 L 158.93,364.50 L 159.33,364.53 L 159.73,364.50 L 160.13,364.46 L 160.53,364.50 L 160.93,364.47 L 161.33,364.49 L 161.73,364.44 L 162.13,364.50 L 162.54,364.46 L 162.94,364.42 L 163.34,364.41 L 163.74,364.35 L 164.14,364.39 L 164.54,364.40 L 164.94,364.35 L 165.34,364.28 L 165.74,364.29 L 166.14,364.27 L 166.54,364.30 L 166.94,364.34 L 167.34,364.26 L 167.74,364.23 L 168.14,364.19 L 168.54,364.18 L 168.94,364.19 L 169.35,364.11 L 169.75,364.18 L 170.15,364.10 L 170.55,364.08 L 170.95,364.05 L 171.35,364.05 L 171.75,364.10 L 172.15,363.92 L 172.55,363.97 L 172.95,363.92 L 173.35,363.98 L 173.75,363.85 L 174.15,364.00 L 174.55,363.97 L 174.95,363.87 L 175.35,363.75 L 175.75,363.63 L 176.16,363.85 L 176.56,363.74 L 176.96,363.80 L 177.36,363.69 L 177.76,363.63 L 178.16,363.51 L 178.56,363.72 L 178.96,363.72 L 179.36,363.57 L 179.76,363.56 L 180.16,363.48 L 180.56,363.43 L 180.96,363.44 L 181.36,363.46 L 181.76,363.34 L 182.16,363.37 L 182.56,363.37 L 182.97,363.12 L 183.37,363.17 L 183.77,363.17 L 184.17,363.12 L 184.57,363.06 L 184.97,363.19 L 185.37,363.22 L 185.77,363.09 L 186.17,363.08 L 186.57,362.93 L 186.97,362.83 L 187.37,362.78 L 187.77,362.82 L 188.17,362.76 L 188.57,362.83 L 188.97,362.77 L 189.37,362.74 L 189.78,362.69 L 190.18,362.57 L 190.58,362.69 L 190.98,362.54 L 191.38,362.57 L 191.78,362.31 L 192.18,362.26 L 192.58,362.25 L 192.98,362.15 L 193.38,362.37 L 193.78,362.18 L 194.18,362.17 L 194.58,361.94 L 194.98,362.09 L 195.38,361.81 L 195.78,361.93 L 196.18,361.95 L 196.59,361.77 L 196.99,361.57 L 197.39,361.58 L 197.79,361.52 L 198.19,361.62 L 198.59,361.39 L 198.99,361.21 L 199.39,361.41 L 199.79,361.30 L 200.19,361.32 L 200.59,361.06 L 200.99,361.13 L 201.39,360.89 L 201.79,360.90 L 202.19,361.04 L 202.59,360.96 L 202.99,360.87 L 203.40,360.57 L 203.80,360.52 L 204.20,360.47 L 204.60,360.52 L 205.00,360.27 L 205.40,360.36 L 205.80,360.47 L 206.20,360.17 L 206.60,359.98 L 207.00,359.99 L 207.40,360.13 L 207.80,359.88 L 208.20,359.60 L 208.60,359.63 L 209.00,359.43 L 209.40,359.29 L 209.80,359.23 L 210.21,359.27 L 210.61,359.37 L 211.01,359.30 L 211.41,359.15 L 211.81,359.03 L 212.21,358.73 L 212.61,358.77 L 213.01,358.85 L 213.41,358.37 L 213.81,358.34 L 214.21,358.48 L 214.61,357.81 L 215.01,358.03 L 215.41,358.23 L 215.81,357.89 L 216.21,357.75 L 216.61,357.51 L 217.02,357.49 L 217.42,357.27 L 217.82,356.99 L 218.22,357.55 L 218.62,356.90 L 219.02,356.93 L 219.42,356.66 L 219.82,356.35 L 220.22,356.43 L 220.62,356.43 L 221.02,356.03 L 221.42,356.19 L 221.82,355.95 L 222.22,355.69 L 222.62,355.36 L 223.02,355.51 L 223.42,355.15 L 223.83,355.02 L 224.23,355.20 L 224.63,355.05 L 225.03,354.64 L 225.43,354.48 L 225.83,354.22 L 226.23,354.18 L 226.63,354.06 L 227.03,354.02 L 227.43,353.61 L 227.83,353.30 L 228.23,353.83 L 228.63,353.62 L 229.03,353.25 L 229.43,352.71 L 229.83,352.84 L 230.23,352.61 L 230.64,352.40 L 231.04,352.48 L 231.44,352.17 L 231.84,352.07 L 232.24,351.57 L 232.64,351.72 L 233.04,350.83 L 233.44,351.14 L 233.84,350.95 L 234.24,350.81 L 234.64,350.69 L 235.04,350.45 L 235.44,350.46 L 235.84,349.79 L 236.24,350.05 L 236.64,349.65 L 237.04,349.18 L 237.45,349.76 L 237.85,349.21 L 238.25,349.24 L 238.65,348.93 L 239.05,348.75 L 239.45,348.22 L 239.85,348.50 L 240.25,348.00 L 240.65,348.11 L 241.05,347.58 L 241.45,346.96 L 241.85,347.44 L 242.25,347.04 L 242.65,347.08 L 243.05,347.09 L 243.45,346.87 L 243.85,346.48 L 244.26,346.31 L 244.66,346.06 L 245.06,345.97 L 245.46,345.42 L 245.86,345.19 L 246.26,345.05 L 246.66,344.90 L 247.06,344.62 L 247.46,344.40 L 247.86,344.34 L 248.26,343.76 L 248.66,343.65 L 249.06,343.74 L 249.46,343.57 L 249.86,343.43 L 250.26,343.19 L 250.66,343.18 L 251.06,342.55 L 251.47,342.68 L 251.87,342.47 L 252.27,342.58 L 252.67,341.76 L 253.07,341.42 L 253.47,341.07 L 253.87,341.03 L 254.27,341.09 L 254.67,340.77 L 255.07,340.71 L 255.47,340.87 L 255.87,340.65 L 256.27,339.86 L 256.67,339.77 L 257.07,339.73 L 257.47,339.58 L 257.87,338.87 L 258.28,339.22 L 258.68,339.18 L 259.08,338.60 L 259.48,338.16 L 259.88,338.41 L 260.28,337.78 L 260.68,337.92 L 261.08,337.11 L 261.48,337.25 L 261.88,337.59 L 262.28,336.83 L 262.68,336.69 L 263.08,336.72 L 263.48,336.38 L 263.88,336.37 L 264.28,335.87 L 264.68,335.85 L 265.09,335.42 L 265.49,335.42 L 265.89,335.06 L 266.29,334.91 L 266.69,334.71 L 267.09,334.75 L 267.49,334.79 L 267.89,334.29 L 268.29,333.73 L 268.69,333.91 L 269.09,333.77 L 269.49,333.64 L 269.89,333.42 L 270.29,333.31 L 270.69,333.05 L 271.09,332.70 L 271.49,332.51 L 271.90,332.14 L 272.30,332.45 L 272.70,331.83 L 273.10,331.53 L 273.50,331.08 L 273.90,331.60 L 274.30,331.11 L 274.70,330.84 L 275.10,330.93 L 275.50,330.61 L 275.90,330.47 L 276.30,330.61 L 276.70,329.53 L 277.10,329.52 L 277.50,329.10 L 277.90,329.08 L 278.30,329.68 L 278.71,329.26 L 279.11,328.85 L 279.51,328.94 L 279.91,327.98 L 280.31,327.99 L 280.71,328.04 L 281.11,328.10 L 281.51,327.40 L 281.91,327.30 L 282.31,326.95 L 282.71,326.40 L 283.11,326.62 L 283.51,326.46 L 283.91,326.31 L 284.31,325.21 L 284.71,325.57 L 285.11,326.72 L 285.52,325.02 L 285.92,325.46 L 286.32,324.80 L 286.72,324.32 L 287.12,324.89 L 287.52,324.63 L 287.92,324.16 L 288.32,323.79 L 288.72,323.75 L 289.12,323.68 L 289.52,323.79 L 289.92,323.56 L 290.32,323.15 L 290.72,322.95 L 291.12,322.33 L 291.52,322.09 L 291.92,322.70 L 292.33,322.43 L 292.73,321.92 L 293.13,321.89 L 293.53,321.39 L 293.93,321.82 L 294.33,321.34 L 294.73,320.82 L 295.13,320.60 L 295.53,320.46 L 295.93,320.21 L 296.33,320.70 L 296.73,320.34 L 297.13,319.71 L 297.53,319.56 L 297.93,319.05 L 298.33,319.52 L 298.73,318.63 L 299.14,318.80 L 299.54,318.96 L 299.94,319.03 L 300.34,318.55 L 300.74,317.74 L 301.14,317.80 L 301.54,318.78 L 301.94,317.64 L 302.34,317.74 L 302.74,317.27 L 303.14,316.78 L 303.54,317.05 L 303.94,316.26 L 304.34,316.72 L 304.74,316.76 L 305.14,316.24 L 305.54,315.38 L 305.95,315.03 L 306.35,315.17 L 306.75,315.41 L 307.15,315.14 L 307.55,315.41 L 307.95,314.58 L 308.35,314.99 L 308.75,313.69 L 309.15,314.83 L 309.55,313.90 L 309.95,314.13 L 310.35,313.84 L 310.75,313.42 L 311.15,313.59 L 311.55,313.17 L 311.95,312.77 L 312.35,312.50 L 312.76,312.34 L 313.16,312.36 L 313.56,312.06 L 313.96,311.35 L 314.36,311.66 L 314.76,310.69 L 315.16,310.96 L 315.56,310.86 L 315.96,311.49 L 316.36,310.06 L 316.76,310.97 L 317.16,309.87 L 317.56,309.35 L 317.96,309.80 L 318.36,309.60 L 318.76,308.78 L 319.16,307.67 L 319.57,308.55 L 319.97,308.39 L 320.37,308.62 L 320.77,308.64 L 321.17,307.95 L 321.57,307.47 L 321.97,307.57 L 322.37,307.50 L 322.77,306.72 L 323.17,306.49 L 323.57,306.58 L 323.97,306.69 L 324.37,306.50 L 324.77,304.98 L 325.17,305.12 L 325.57,305.29 L 325.97,304.58 L 326.38,304.89 L 326.78,304.59 L 327.18,305.14 L 327.58,303.90 L 327.98,304.54 L 328.38,303.77 L 328.78,302.90 L 329.18,302.88 L 329.58,302.51 L 329.98,302.52 L 330.38,301.98 L 330.78,302.27 L 331.18,301.32 L 331.58,301.60 L 331.98,301.72 L 332.38,300.55 L 332.78,301.37 L 333.19,300.21 L 333.59,301.79 L 333.99,300.32 L 334.39,300.67 L 334.79,300.47 L 335.19,299.62 L 335.59,299.49 L 335.99,299.28 L 336.39,299.50 L 336.79,298.93 L 337.19,298.97 L 337.59,298.67 L 337.99,298.91 L 338.39,298.29 L 338.79,298.30 L 339.19,297.14 L 339.59,297.10 L 340.00,297.37 L 340.40,297.02 L 340.80,296.21 L 341.20,296.87 L 341.60,296.46 L 342.00,296.82 L 342.40,295.82 L 342.80,296.19 L 343.20,296.19 L 343.60,294.55 L 344.00,295.99 L 344.40,294.38 L 344.80,294.64 L 345.20,295.12 L 345.60,294.12 L 346.00,294.71 L 346.40,294.18 L 346.81,293.73 L 347.21,294.02 L 347.61,293.62 L 348.01,293.41 L 348.41,293.59 L 348.81,294.38 L 349.21,292.90 L 349.61,292.99 L 350.01,291.79 L 350.41,292.15 L 350.81,292.45 L 351.21,291.41 L 351.61,291.73 L 352.01,290.77 L 352.41,291.85 L 352.81,291.31 L 353.21,290.32 L 353.62,290.34 L 354.02,291.05 L 354.42,290.44 L 354.82,289.53 L 355.22,290.06 L 355.62,290.03 L 356.02,289.50 L 356.42,289.30 L 356.82,290.14 L 357.22,289.18 L 357.62,289.93 L 358.02,289.82 L 358.42,288.98 L 358.82,288.80 L 359.22,288.71 L 359.62,287.77 L 360.02,288.54 L 360.43,287.40 L 360.83,288.06 L 361.23,288.34 L 361.63,287.18 L 362.03,287.81 L 362.43,287.20 L 362.83,286.33 L 363.23,287.60 L 363.63,287.24 L 364.03,285.99 L 364.43,287.37 L 364.83,286.46 L 365.23,286.46 L 365.63,285.20 L 366.03,285.67 L 366.43,286.11 L 366.83,285.39 L 367.23,285.79 L 367.64,284.82 L 368.04,283.90 L 368.44,285.08 L 368.84,284.72 L 369.24,284.58 L 369.64,284.69 L 370.04,284.59 L 370.44,285.10 L 370.84,284.29 L 371.24,284.39 L 371.64,283.02 L 372.04,284.03 L 372.44,284.31 L 372.84,283.07 L 373.24,282.99 L 373.64,282.74 L 374.04,282.89 L 374.45,282.58 L 374.85,282.09 L 375.25,281.92 L 375.65,282.92 L 376.05,281.20 L 376.45,282.73 L 376.85,281.43 L 377.25,280.78 L 377.65,282.87 L 378.05,281.60 L 378.45,280.97 L 378.85,280.68 L 379.25,281.05 L 379.65,279.54 L 380.05,280.06 L 380.45,280.23 L 380.85,281.56 L 381.26,279.43 L 381.66,279.91 L 382.06,279.12 L 382.46,279.26 L 382.86,278.34 L 383.26,279.23 L 383.66,279.05 L 384.06,278.96 L 384.46,278.28 L 384.86,277.97 L 385.26,278.96 L 385.66,277.92 L 386.06,277.48 L 386.46,277.71 L 386.86,277.21 L 387.26,277.33 L 387.66,277.05 L 388.07,277.67 L 388.47,276.48 L 388.87,277.94 L 389.27,276.76 L 389.67,276.85 L 390.07,276.16 L 390.47,276.42 L 390.87,275.59 L 391.27,275.82 L 391.67,275.89 L 392.07,275.23 L 392.47,274.97 L 392.87,274.93 L 393.27,275.71 L 393.67,274.64 L 394.07,275.59 L 394.47,274.08 L 394.88,274.58 L 395.28,275.71 L 395.68,273.26 L 396.08,273.97 L 396.48,273.82 L 396.88,272.68 L 397.28,273.42 L 397.68,273.89 L 398.08,273.42 L 398.48,273.28 L 398.88,273.68 L 399.28,273.87 L 399.68,272.21 L 400.08,271.63 L 400.48,271.93 L 400.88,272.09 L 401.28,271.83 L 401.69,271.27 L 402.09,272.32 L 402.49,271.48 L 402.89,271.53 L 403.29,271.91 L 403.69,270.33 L 404.09,270.98 L 404.49,271.47 L 404.89,270.43 L 405.29,270.02 L 405.69,270.50 L 406.09,269.64 L 406.49,270.72 L 406.89,269.90 L 407.29,269.88 L 407.69,270.21 L 408.09,268.98 L 408.50,269.12 L 408.90,268.42 L 409.30,269.40 L 409.70,268.97 L 410.10,269.23 L 410.50,269.28 L 410.90,268.37 L 411.30,268.24 L 411.70,266.45 L 412.10,268.17 L 412.50,267.97 L 412.90,268.32 L 413.30,266.61 L 413.70,266.75 L 414.10,267.07 L 414.50,266.52 L 414.90,266.84 L 415.31,266.77 L 415.71,265.58 L 416.11,265.58 L 416.51,266.67 L 416.91,265.36 L 417.31,265.97 L 417.71,265.40 L 418.11,265.36 L 418.51,263.14 L 418.91,264.41 L 419.31,264.66 L 419.71,265.16 L 420.11,264.39 L 420.51,262.99 L 420.91,264.75 L 421.31,263.40 L 421.71,262.76 L 422.12,262.84 L 422.52,263.40 L 422.92,261.79 L 423.32,263.83 L 423.72,261.20 L 424.12,262.84 L 424.52,261.35 L 424.92,261.36 L 425.32,260.73 L 425.72,261.77 L 426.12,261.93 L 426.52,260.28 L 426.92,260.22 L 427.32,261.39 L 427.72,261.46 L 428.12,260.27 L 428.52,259.60 L 428.93,260.30 L 429.33,259.87 L 429.73,259.46 L 430.13,259.65 L 430.53,259.38 L 430.93,258.94 L 431.33,258.71 L 431.73,258.52 L 432.13,258.57 L 432.53,258.01 L 432.93,257.26 L 433.33,259.14 L 433.73,257.88 L 434.13,256.92 L 434.53,258.51 L 434.93,257.05 L 435.33,256.80 L 435.74,257.32 L 436.14,258.00 L 436.54,256.09 L 436.94,255.87 L 437.34,256.22 L 437.74,255.86 L 438.14,256.04 L 438.54,255.75 L 438.94,254.55 L 439.34,255.55 L 439.74,255.78 L 440.14,254.69 L 440.54,253.64 L 440.94,255.07 L 441.34,254.61 L 441.74,253.76 L 442.14,253.77 L 442.55,253.92 L 442.95,253.28 L 443.35,252.85 L 443.75,253.10 L 444.15,252.45 L 444.55,252.17 L 444.95,253.33 L 445.35,252.85 L 445.75,250.42 L 446.15,252.36 L 446.55,251.68 L 446.95,251.33 L 447.35,252.04 L 447.75,250.84 L 448.15,251.22 L 448.55,250.71 L 448.95,250.26 L 449.36,249.81 L 449.76,250.91 L 450.16,250.04 L 450.56,249.85 L 450.96,249.25 L 451.36,249.27 L 451.76,248.10 L 452.16,248.39 L 452.56,247.98 L 452.96,248.50 L 453.36,248.41 L 453.76,248.90 L 454.16,247.94 L 454.56,247.29 L 454.96,247.37 L 455.36,246.62 L 455.76,246.74 L 456.17,247.19 L 456.57,245.91 L 456.97,246.71 L 457.37,245.67 L 457.77,245.81 L 458.17,246.08 L 458.57,246.10 L 458.97,244.50 L 459.37,244.53 L 459.77,243.71 L 460.17,244.43 L 460.57,243.32 L 460.97,243.06 L 461.37,244.01 L 461.77,242.62 L 462.17,243.60 L 462.57,243.16 L 462.98,242.27 L 463.38,243.07 L 463.78,241.91 L 464.18,242.20 L 464.58,241.27 L 464.98,240.91 L 465.38,241.65 L 465.78,240.77 L 466.18,241.38 L 466.58,241.00 L 466.98,241.21 L 467.38,239.99 L 467.78,239.47 L 468.18,239.38 L 468.58,239.03 L 468.98,239.97 L 469.38,240.51 L 469.79,238.24 L 470.19,238.94 L 470.59,238.50 L 470.99,237.95 L 471.39,238.28 L 471.79,238.68 L 472.19,237.97 L 472.59,237.30 L 472.99,236.89 L 473.39,237.16 L 473.79,237.59 L 474.19,236.66 L 474.59,235.84 L 474.99,236.62 L 475.39,235.92 L 475.79,235.85 L 476.19,235.44 L 476.60,235.35 L 477.00,234.83 L 477.40,235.45 L 477.80,234.69 L 478.20,234.50 L 478.60,234.12 L 479.00,234.54 L 479.40,233.70 L 479.80,233.97 L 480.20,233.74 L 480.60,234.73 L 481.00,232.93 L 481.40,233.97 L 481.80,233.33 L 482.20,234.18 L 482.60,233.12 L 483.00,232.22 L 483.40,232.42 L 483.81,232.22 L 484.21,231.55 L 484.61,232.65 L 485.01,231.25 L 485.41,231.32 L 485.81,231.24 L 486.21,230.92 L 486.61,230.86 L 487.01,230.09 L 487.41,230.17 L 487.81,230.10 L 488.21,230.60 L 488.61,229.76 L 489.01,230.18 L 489.41,230.69 L 489.81,230.73 L 490.21,229.59 L 490.62,228.86 L 491.02,228.97 L 491.42,228.51 L 491.82,228.64 L 492.22,227.74 L 492.62,227.16 L 493.02,227.62 L 493.42,227.72 L 493.82,227.52 L 494.22,228.31 L 494.62,226.81 L 495.02,227.00 L 495.42,226.78 L 495.82,227.35 L 496.22,226.52 L 496.62,226.80 L 497.02,225.95 L 497.43,225.10 L 497.83,225.71 L 498.23,225.99 L 498.63,225.56 L 499.03,224.96 L 499.43,225.44 L 499.83,225.05 L 500.23,225.20 L 500.63,223.99 L 501.03,224.06 L 501.43,224.49 L 501.83,224.35 L 502.23,224.67 L 502.63,223.66 L 503.03,224.25 L 503.43,223.84 L 503.83,224.18 L 504.24,224.10 L 504.64,224.24 L 505.04,222.12 L 505.44,222.47 L 505.84,222.59 L 506.24,223.12 L 506.64,222.84 L 507.04,221.99 L 507.44,221.89 L 507.84,223.35 L 508.24,222.19 L 508.64,221.38 L 509.04,220.36 L 509.44,221.58 L 509.84,221.52 L 510.24,221.05 L 510.64,221.23 L 511.05,220.04 L 511.45,220.68 L 511.85,220.94 L 512.25,220.14 L 512.65,219.96 L 513.05,219.84 L 513.45,218.95 L 513.85,219.54 L 514.25,219.02 L 514.65,218.23 L 515.05,219.87 L 515.45,218.14 L 515.85,219.31 L 516.25,218.61 L 516.65,218.83 L 517.05,218.67 L 517.45,219.81 L 517.86,218.38 L 518.26,218.14 L 518.66,216.39 L 519.06,217.70 L 519.46,217.65 L 519.86,216.70 L 520.26,216.28 L 520.66,217.25 L 521.06,216.91 L 521.46,217.20 L 521.86,216.38 L 522.26,217.65 L 522.66,215.80 L 523.06,216.96 L 523.46,215.92 L 523.86,214.91 L 524.26,216.24 L 524.67,216.68 L 525.07,214.34 L 525.47,215.53 L 525.87,215.41 L 526.27,214.28 L 526.67,214.76 L 527.07,214.47 L 527.47,214.72 L 527.87,214.51 L 528.27,214.24 L 528.67,214.78 L 529.07,214.66 L 529.47,213.39 L 529.87,214.64 L 530.27,213.15 L 530.67,213.24 L 531.07,213.43 L 531.48,212.80 L 531.88,213.30 L 532.28,213.48 L 532.68,213.45 L 533.08,212.49 L 533.48,212.16 L 533.88,212.32 L 534.28,212.72 L 534.68,210.70 L 535.08,210.53 L 535.48,211.47 L 535.88,211.30 L 536.28,210.86 L 536.68,211.20 L 537.08,211.46 L 537.48,211.68 L 537.88,209.89 L 538.29,211.10 L 538.69,210.18 L 539.09,211.39 L 539.49,210.21 L 539.89,209.88 L 540.29,209.28 L 540.69,211.23 L 541.09,210.21 L 541.49,208.73 L 541.89,209.78 L 542.29,208.71 L 542.69,210.05 L 543.09,208.04 L 543.49,208.76 L 543.89,209.32 L 544.29,208.00 L 544.69,208.33 L 545.10,208.56 L 545.50,208.72 L 545.90,209.26 L 546.30,207.80 L 546.70,207.46 L 547.10,208.77 L 547.50,207.42 L 547.90,209.75 L 548.30,207.43 L 548.70,207.41 L 549.10,206.93 L 549.50,206.26 L 549.90,207.52 L 550.30,206.88 L 550.70,207.89 L 551.10,206.50 L 551.50,207.06 L 551.91,206.00 L 552.31,206.30 L 552.71,205.34 L 553.11,205.86 L 553.51,204.98 L 553.91,205.59 L 554.31,205.63 L 554.71,206.14 L 555.11,205.54 L 555.51,205.28 L 555.91,205.33 L 556.31,204.34 L 556.71,205.29 L 557.11,205.41 L 557.51,204.56 L 557.91,204.01 L 558.31,204.19 L 558.72,204.96 L 559.12,202.96 L 559.52,203.58 L 559.92,202.48 L 560.32,203.56 L 560.72,202.06 L 561.12,204.42 L 561.52,203.43 L 561.92,203.41 L 562.32,202.47 L 562.72,201.97 L 563.12,202.93 L 563.52,201.95 L 563.92,203.16 L 564.32,202.70 L 564.72,201.64 L 565.12,201.42 L 565.53,201.63 L 565.93,201.18 L 566.33,202.38 L 566.73,201.37 L 567.13,200.47 L 567.53,201.49 L 567.93,200.92 L 568.33,200.16 L 568.73,200.16 L 569.13,199.45 L 569.53,200.72 L 569.93,199.45 L 570.33,199.61 L 570.73,199.72 L 571.13,198.78 L 571.53,199.43 L 571.93,198.70 L 572.34,198.18 L 572.74,199.74 L 573.14,200.00 L 573.54,199.89 L 573.94,200.00 L 574.34,199.20 L 574.74,198.18 L 575.14,198.59 L 575.54,198.26 L 575.94,198.99 L 576.34,197.67 L 576.74,197.35 L 577.14,198.75 L 577.54,197.62 L 577.94,197.18 L 578.34,197.01 L 578.74,197.31 L 579.15,198.15 L 579.55,197.93 L 579.95,196.66 L 580.35,197.03 L 580.75,196.78 L 581.15,196.61 L 581.55,197.93 L 581.95,197.07 L 582.35,196.79 L 582.75,196.80 L 583.15,196.33 L 583.55,197.73 L 583.95,196.33 L 584.35,196.01 L 584.75,196.39 L 585.15,196.03 L 585.55,195.36 L 585.96,198.16 L 586.36,195.10 L 586.76,194.92 L 587.16,194.69 L 587.56,194.79 L 587.96,195.11 L 588.36,194.25 L 588.76,193.21 L 589.16,194.96 L 589.56,194.97 L 589.96,195.33 L 590.36,194.06 L 590.76,194.21 L 591.16,193.74 L 591.56,194.28 L 591.96,192.82 L 592.36,192.32 L 592.77,192.91 L 593.17,192.68 L 593.57,192.58 L 593.97,193.47 L 594.37,193.28 L 594.77,192.76 L 595.17,194.37 L 595.57,193.71 L 595.97,193.60 L 596.37,194.28 L 596.77,193.18 L 597.17,191.67 L 597.57,190.51 L 597.97,192.27 L 598.37,193.26 L 598.77,192.55 L 599.17,191.43 L 599.57,190.70 L 599.98,190.69 L 600.38,191.65 L 600.78,192.23 L 601.18,191.53 L 601.58,191.24 L 601.98,190.28 L 602.38,190.85 L 602.78,191.07 L 603.18,190.28 L 603.58,190.36 L 603.98,190.78 L 604.38,190.40 L 604.78,188.71 L 605.18,189.69 L 605.58,190.33 L 605.98,189.94 L 606.38,188.74 L 606.79,189.70 L 607.19,188.33 L 607.59,188.02 L 607.99,189.04 L 608.39,189.47 L 608.79,189.58 L 609.19,189.30 L 609.59,188.13 L 609.99,188.58 L 610.39,188.96 L 610.79,187.34 L 611.19,189.75 L 611.59,187.74 L 611.99,188.51 L 612.39,188.86 L 612.79,187.68 L 613.19,188.52 L 613.60,187.21 L 614.00,187.90 L 614.40,187.65 L 614.80,187.51 L 615.20,186.73 L 615.60,186.63 L 616.00,186.99 L 616.40,187.50 L 616.80,185.54 L 617.20,187.08 L 617.60,186.86 L 618.00,186.15 L 618.40,185.66 L 618.80,186.24 L 619.20,186.25 L 619.60,186.25 L 620.00,186.51 L 620.41,184.82 L 620.81,185.81 L 621.21,185.90 L 621.61,186.09 L 622.01,184.88 L 622.41,185.44 L 622.81,184.54 L 623.21,184.86 L 623.61,184.72 L 624.01,184.36 L 624.41,184.49 L 624.81,185.21 L 625.21,184.50 L 625.61,183.53 L 626.01,184.14 L 626.41,183.68 L 626.81,184.16 L 627.22,184.93 L 627.62,184.17 L 628.02,184.64 L 628.42,183.41 L 628.82,183.71 L 629.22,182.90 L 629.62,184.61 L 630.02,183.70 L 630.42,182.98 L 630.82,183.17 L 631.22,182.76 L 631.62,182.91 L 632.02,183.76 L 632.42,183.01 L 632.82,182.40 L 633.22,182.05 L 633.62,182.19 L 634.03,182.48 L 634.43,181.74 L 634.83,181.31 L 635.23,181.60 L 635.63,182.44 L 636.03,180.52 L 636.43,179.56 L 636.83,183.47 L 637.23,180.35 L 637.63,181.32 L 638.03,181.59 L 638.43,180.10 L 638.83,181.18 L 639.23,181.17 L 639.63,179.80 L 640.03,179.06 L 640.43,179.66 L 640.84,181.28 L 641.24,179.56 L 641.64,180.27 L 642.04,180.62 L 642.44,179.40 L 642.84,179.82 L 643.24,178.85 L 643.64,179.21 L 644.04,179.87 L 644.44,178.58 L 644.84,179.00 L 645.24,178.25 L 645.64,178.56 L 646.04,179.37 L 646.44,178.41 L 646.84,178.47 L 647.24,179.40 L 647.65,177.61 L 648.05,177.23 L 648.45,176.53 L 648.85,177.92 L 649.25,178.91 L 649.65,177.08 L 650.05,177.91 L 650.45,176.33 L 650.85,177.33 L 651.25,177.25 L 651.65,176.88 L 652.05,177.01 L 652.45,177.20 L 652.85,176.52 L 653.25,174.63 L 653.65,174.75 L 654.05,174.44 L 654.46,175.73 L 654.86,174.95 L 655.26,174.89 L 655.66,175.05 L 656.06,174.70 L 656.46,174.86 L 656.86,175.03 L 657.26,175.40 L 657.66,175.43 L 658.06,174.55 L 658.46,175.01 L 658.86,175.25 L 659.26,175.51 L 659.66,173.69 L 660.06,174.66 L 660.46,174.80 L 660.86,173.93 L 661.27,173.70 L 661.67,173.97 L 662.07,173.72 L 662.47,172.95 L 662.87,172.35 L 663.27,173.26 L 663.67,172.87 L 664.07,174.82 L 664.47,172.67 L 664.87,173.61 L 665.27,172.94 L 665.67,171.77 L 666.07,171.93 L 666.47,174.03 L 666.87,171.14 L 667.27,171.28 L 667.67,173.09 L 668.08,172.33 L 668.48,171.42 L 668.88,171.48 L 669.28,170.78 L 669.68,170.46 L 670.08,172.03 L 670.48,172.15 L 670.88,170.45 L 671.28,172.24 L 671.68,171.50 L 672.08,170.44 L 672.48,171.38 L 672.88,170.70 L 673.28,170.50 L 673.68,170.77 L 674.08,170.06 L 674.48,168.96 L 674.89,169.87 L 675.29,169.15 L 675.69,168.76 L 676.09,170.47 L 676.49,169.10 L 676.89,168.01 L 677.29,170.14 L 677.69,169.23 L 678.09,168.75 L 678.49,168.36 L 678.89,169.56 L 679.29,169.25 L 679.69,167.79 L 680.09,168.47 L 680.49,167.84 L 680.89,167.93 L 681.29,168.20 L 681.70,167.55 L 682.10,168.28 L 682.50,167.74 L 682.90,168.37 L 683.30,168.08 L 683.70,166.47 L 684.10,167.05 L 684.50,167.23 L 684.90,167.69 L 685.30,168.80 L 685.70,166.92 L 686.10,165.59 L 686.50,166.98 L 686.90,166.60 L 687.30,167.27 L 687.70,165.15 L 688.10,166.92 L 688.51,164.74 L 688.91,166.42 L 689.31,165.95 L 689.71,166.96 L 690.11,166.64 L 690.51,165.88 L 690.91,164.63 L 691.31,165.15 L 691.71,164.71 L 692.11,165.08 L 692.51,165.61 L 692.91,163.72 L 693.31,164.93 L 693.71,164.93 L 694.11,164.35 L 694.51,164.25 L 694.91,163.33 L 695.32,164.80 L 695.72,164.58 L 696.12,163.02 L 696.52,163.10 L 696.92,164.91 L 697.32,163.78 L 697.72,163.38 L 698.12,162.85 L 698.52,163.25 L 698.92,163.14 L 699.32,162.50 L 699.72,163.39 L 700.12,162.87 L 700.52,161.86 L 700.92,162.41 L 701.32,162.69 L 701.72,163.11 L 702.13,162.49 L 702.53,162.80 L 702.93,162.66 L 703.33,162.49 L 703.73,162.47 L 704.13,160.81 L 704.53,162.14 L 704.93,162.13 L 705.33,161.53 L 705.73,160.27 L 706.13,160.47 L 706.53,160.73 L 706.93,160.14 L 707.33,158.98 L 707.73,161.20 L 708.13,160.93 L 708.53,159.49 L 708.94,159.97 L 709.34,160.01 L 709.74,160.42 L 710.14,161.31 L 710.54,162.45 L 710.94,159.81 L 711.34,160.90 L 711.74,159.77 L 712.14,160.50 L 712.54,159.67 L 712.94,159.23 L 713.34,160.16 L 713.74,160.13 L 714.14,159.83 L 714.54,159.62 L 714.94,159.16 L 715.34,158.46 L 715.74,160.08 L 716.15,158.17 L 716.55,157.69 L 716.95,159.57 L 717.35,158.76 L 717.75,158.49 L 718.15,157.51 L 718.55,156.90 L 718.95,158.21 L 719.35,157.25 L 719.75,157.16 L 720.15,157.60 L 720.55,157.52 L 720.95,155.92 L 721.35,157.03 L 721.75,155.84 L 722.15,157.40 L 722.55,157.21 L 722.96,157.27 L 723.36,156.63 L 723.76,157.38 L 724.16,156.49 L 724.56,157.51 L 724.96,156.31 L 725.36,157.26 L 725.76,157.19 L 726.16,157.03 L 726.56,155.31 L 726.96,154.64 L 727.36,155.14 L 727.76,155.94 L 728.16,155.77 L 728.56,154.92 L 728.96,154.93 L 729.36,154.53 L 729.77,154.80 L 730.17,155.20 L 730.57,154.49 L 730.97,154.45 L 731.37,154.09 L 731.77,153.88 L 732.17,153.42 L 732.57,153.35 L 732.97,154.57 L 733.37,153.61 L 733.77,154.74 L 734.17,154.49 L 734.57,153.68 L 734.97,153.72 L 735.37,155.48 L 735.77,153.93 L 736.17,152.61 L 736.58,153.12 L 736.98,151.92 L 737.38,153.78 L 737.78,153.90 L 738.18,152.21 L 738.58,152.86 L 738.98,151.92 L 739.38,152.17 L 739.78,151.96 L 740.18,152.29 L 740.58,151.76 L 740.98,153.03 L 741.38,152.05 L 741.78,151.20 L 742.18,151.26 L 742.58,150.66 L 742.98,151.14 L 743.39,152.37 L 743.79,151.83 L 744.19,150.98 L 744.59,151.01 L 744.99,151.01 L 745.39,150.20 L 745.79,149.81 L 746.19,151.89 L 746.59,149.22 L 746.99,150.53 L 747.39,148.92 L 747.79,149.86 L 748.19,150.21 L 748.59,148.85 L 748.99,149.59 L 749.39,148.77 L 749.79,148.22 L 750.20,148.99 L 750.60,148.29 L 751.00,149.02 L 751.40,149.77 L 751.80,148.60 L 752.20,149.02 L 752.60,148.20 L 753.00,149.04 L 753.40,147.94 L 753.80,147.46 L 754.20,148.53 L 754.60,148.38 L 755.00,147.37 L 755.40,147.61 L 755.80,147.65 L 756.20,147.61 L 756.60,146.37 L 757.01,146.59 L 757.41,146.67 L 757.81,147.97 L 758.21,148.20 L 758.61,147.22 L 759.01,148.06 L 759.41,146.99 L 759.81,145.28 L 760.21,146.13 L 760.61,144.72 L 761.01,146.79 L 761.41,146.01 L 761.81,145.98 L 762.21,145.48 L 762.61,144.61 L 763.01,146.35 L 763.41,145.90 L 763.82,145.01 L 764.22,145.14 L 764.62,145.43 L 765.02,145.11 L 765.42,144.22 L 765.82,145.09 L 766.22,146.25 L 766.62,145.54 L 767.02,144.01 L 767.42,143.10 L 767.82,144.53 L 768.22,143.68 L 768.62,143.67 L 769.02,143.77 L 769.42,143.60 L 769.82,143.98 L 770.22,143.84 L 770.63,143.44 L 771.03,142.99 L 771.43,143.14 L 771.83,141.75 L 772.23,143.75 L 772.63,142.17 L 773.03,142.77 L 773.43,142.43 L 773.83,142.00 L 774.23,141.89 L 774.63,142.21 L 775.03,142.69 L 775.43,141.62 L 775.83,140.90 L 776.23,141.41 L 776.63,141.75 L 777.03,141.08 L 777.44,141.32 L 777.84,141.33 L 778.24,140.09 L 778.64,140.17 L 779.04,141.04 L 779.44,141.22 L 779.84,140.56 L 780.24,140.09 L 780.64,140.10 L 781.04,139.13 L 781.44,139.76 L 781.84,139.07 L 782.24,138.15 L 782.64,138.75 L 783.04,139.72 L 783.44,138.13 L 783.84,139.52 L 784.25,138.50 L 784.65,138.34 L 785.05,138.70 L 785.45,138.49 L 785.85,138.46 L 786.25,137.47 L 786.65,137.65 L 787.05,137.11 L 787.45,137.20 L 787.85,138.03 L 788.25,137.33 L 788.65,137.58 L 789.05,137.64 L 789.45,137.01 L 789.85,136.60 L 790.25,137.08 L 790.65,136.59 L 791.06,137.37 L 791.46,136.41 L 791.86,136.29 L 792.26,135.37 L 792.66,135.35 L 793.06,135.06 L 793.46,135.41 L 793.86,135.04 L 794.26,134.99 L 794.66,135.27 L 795.06,135.66 L 795.46,134.17 L 795.86,134.48 L 796.26,133.63 L 796.66,134.17 L 797.06,133.73 L 797.46,134.07 L 797.87,134.60 L 798.27,133.68 L 798.67,133.78 L 799.07,132.98 L 799.47,132.98 L 799.87,133.59 L 800.27,133.89 L 800.67,131.68 L 801.07,133.35 L 801.47,132.95 L 801.87,132.43 L 802.27,132.23 L 802.67,131.90 L 803.07,131.92 L 803.47,132.79 L 803.87,131.97 L 804.27,131.36 L 804.68,130.99 L 805.08,130.89 L 805.48,131.25 L 805.88,130.78 L 806.28,131.30 L 806.68,131.52 L 807.08,130.64 L 807.48,130.91 L 807.88,130.21 L 808.28,129.74 L 808.68,129.72 L 809.08,129.28 L 809.48,129.21 L 809.88,128.59 L 810.28,129.10 L 810.68,129.82 L 811.08,129.34 L 811.49,128.67 L 811.89,129.39 L 812.29,128.58 L 812.69,128.21 L 813.09,127.92 L 813.49,127.79 L 813.89,128.33 L 814.29,128.02 L 814.69,127.78 L 815.09,127.43 L 815.49,127.56 L 815.89,127.01 L 816.29,126.68 L 816.69,126.94 L 817.09,126.19 L 817.49,126.29 L 817.89,126.22 L 818.30,125.90 L 818.70,126.62 L 819.10,125.82 L 819.50,126.22 L 819.90,125.40 L 820.30,125.90 L 820.70,125.00 L 821.10,125.08 L 821.50,124.71 L 821.90,124.72 L 822.30,124.77 L 822.70,123.80 L 823.10,124.04 L 823.50,123.95 L 823.90,123.25 L 824.30,123.87 L 824.70,123.07 L 825.11,123.58 L 825.51,123.31 L 825.91,123.84 L 826.31,123.41 L 826.71,123.08 L 827.11,123.14 L 827.51,122.99 L 827.91,122.41 L 828.31,123.31 L 828.71,123.33 L 829.11,123.21 L 829.51,122.16 L 829.91,121.31 L 830.31,121.98 L 830.71,121.96 L 831.11,121.81 L 831.51,120.74 L 831.91,121.30 L 832.32,120.91 L 832.72,120.34 L 833.12,120.47 L 833.52,120.31 L 833.92,120.57 L 834.32,119.68 L 834.72,120.60 L 835.12,120.22 L 835.52,119.92 L 835.92,119.18 L 836.32,119.46 L 836.72,119.28 L 837.12,118.86 L 837.52,118.86 L 837.92,118.66 L 838.32,118.68 L 838.72,118.05 L 839.13,118.38 L 839.53,118.21 L 839.93,117.92 L 840.33,117.78 L 840.73,118.00 L 841.13,117.99 L 841.53,117.47 L 841.93,117.51 L 842.33,117.63 L 842.73,117.20 L 843.13,116.91 L 843.53,116.81 L 843.93,116.84 L 844.33,117.21 L 844.73,115.47 L 845.13,116.26 L 845.53,115.22 L 845.94,115.92 L 846.34,115.96 L 846.74,115.81 L 847.14,115.92 L 847.54,115.34 L 847.94,115.86 L 848.34,114.91 L 848.74,114.85 L 849.14,114.93 L 849.54,114.79 L 849.94,114.79 L 850.34,114.91 L 850.74,113.75 L 851.14,114.22 L 851.54,114.28 L 851.94,113.72 L 852.34,113.02 L 852.75,113.82 L 853.15,114.33 L 853.55,113.06 L 853.95,113.22 L 854.35,113.03 L 854.75,113.71 L 855.15,112.40 L 855.55,112.40 L 855.95,111.75 L 856.35,112.27 L 856.75,112.02 L 857.15,111.69 L 857.55,112.07 L 857.95,112.02 L 858.35,111.31 L 858.75,111.36 L 859.15,111.71 L 859.56,111.34 L 859.96,110.90 L 860.36,110.65 L 860.76,110.82 L 861.16,110.40 L 861.56,110.56 L 861.96,109.71 L 862.36,109.94 L 862.76,110.51 L 863.16,109.49 L 863.56,109.19 L 863.96,110.08 L 864.36,109.21 L 864.76,109.41 L 865.16,108.80 L 865.56,108.61 L 865.96,108.50 L 866.37,108.95 L 866.77,108.99 L 867.17,108.95 L 867.57,108.37 L 867.97,108.41 L 868.37,107.85 L 868.77,107.81 L 869.17,107.99 L 869.57,107.85 L 869.97,107.50 L 870.37,107.88 L 870.77,106.89 L 871.17,106.60 L 871.57,107.69 L 871.97,107.19 L 872.37,107.23 L 872.77,106.76 L 873.18,106.40 L 873.58,106.92 L 873.98,106.37 L 874.38,105.61 L 874.78,105.75 L 875.18,106.28 L 875.58,105.52 L 875.98,105.84 L 876.38,105.66 L 876.78,104.79 L 877.18,104.80 L 877.58,104.61 L 877.98,105.14 L 878.38,104.49 L 878.78,104.33 L 879.18,104.43 L 879.58,105.21 L 879.99,104.52 L 880.39,104.10 L 880.79,104.66 L 881.19,103.84 L 881.59,104.49 L 881.99,103.54 L 882.39,103.64 L 882.79,103.37 L 883.19,103.94 L 883.59,103.59 L 883.99,103.09 L 884.39,103.68 L 884.79,102.94 L 885.19,102.39 L 885.59,102.69 L 885.99,102.65 L 886.39,102.88 L 886.80,103.29 L 887.20,102.54 L 887.60,101.80 L 888.00,102.20 L 888.40,102.31 L 888.80,101.97 L 889.20,101.08 L 889.60,101.58 L 890.00,101.16" fill="none" stroke="#38bdf8" stroke-width="2.5"/>
<text x="460.0" y="402" fill="#94a3b8" font-size="13" text-anchor="middle" font-family="system-ui,sans-serif">K (coupling)</text>
<text x="18" y="202.5" fill="#94a3b8" font-size="13" font-family="system-ui,sans-serif" transform="rotate(-90 18 202.5)">mean Λ(K)</text>
</svg>