<svg xmlns="http://www.w3.org/2000/svg" width="920" height="420" viewBox="0 0 920 420" role="img" aria-label="2D NS max vorticity and BKM integral vs time">
<rect width="100%" height="100%" fill="#0b1020"/>
<text x="460.0" y="24" fill="#e2e8f0" font-family="system-ui,sans-serif" font-size="16" text-anchor="middle">2D NS — ||ω||∞ and BKM integral</text>
<line x1="70" y1="365" x2="850" y2="365" stroke="#64748b"/>
<line x1="70" y1="40" x2="70" y2="365" stroke="#64748b"/>
<polyline fill="none" stroke="#38bdf8" stroke-width="2" points="70.0,55.5 78.0,147.9 85.9,198.1 93.9,228.7 101.8,249.3 109.8,264.4 117.7,276.2 125.7,285.8 133.6,293.8 141.6,300.6 149.6,306.5 157.5,310.5 165.5,313.1 173.4,315.4 181.4,317.4 189.3,319.2 197.3,320.9 205.3,322.3 213.2,323.7 221.2,325.0 229.1,326.2 237.1,327.3 245.0,328.3 253.0,329.3 260.9,330.3 268.9,331.2 276.9,332.0 284.8,332.8 292.8,333.6 300.7,334.4 308.7,335.1 316.6,335.8 324.6,336.5 332.5,337.1 340.5,337.7 348.5,338.3 356.4,338.8 364.4,339.2 372.3,339.6 380.3,339.9 388.2,340.3 396.2,340.6 404.2,341.0 412.1,341.3 420.1,341.6 428.0,341.9 436.0,342.2 443.9,342.5 451.9,342.8 459.8,343.1 467.8,343.4 475.8,343.7 483.7,343.9 491.7,344.2 499.6,344.5 507.6,344.7 515.5,345.0 523.5,345.2 531.4,345.5 539.4,345.7 547.4,345.9 555.3,346.2 563.3,346.4 571.2,346.6 579.2,346.8 587.1,347.1 595.1,347.3 603.1,347.5 611.0,347.7 619.0,347.9 626.9,348.1 634.9,348.3 642.8,348.5 650.8,348.7 658.7,348.9 666.7,349.1 674.7,349.2 682.6,349.4 690.6,349.6 698.5,349.8 706.5,349.9 714.4,350.1 722.4,350.3 730.3,350.4 738.3,350.6 746.3,350.8 754.2,350.9 762.2,351.1 770.1,351.2 778.1,351.4 786.0,351.5 794.0,351.7 802.0,351.8 809.9,352.0 817.9,352.1 825.8,352.2 833.8,352.4 841.7,352.5 849.7,352.7 850.0,352.7"/>
<polyline fill="none" stroke="#f472b6" stroke-width="2" points="70.0,365.0 78.0,340.8 85.9,323.0 93.9,308.9 101.8,297.2 109.8,287.1 117.7,278.2 125.7,270.4 133.6,263.4 141.6,257.0 149.6,251.3 157.5,246.0 165.5,241.1 173.4,236.3 181.4,231.8 189.3,227.4 197.3,223.2 205.3,219.1 213.2,215.2 221.2,211.4 229.1,207.7 237.1,204.2 245.0,200.7 253.0,197.3 260.9,194.0 268.9,190.8 276.9,187.7 284.8,184.6 292.8,181.7 300.7,178.8 308.7,176.0 316.6,173.2 324.6,170.5 332.5,167.9 340.5,165.3 348.5,162.8 356.4,160.3 364.4,157.9 372.3,155.5 380.3,153.1 388.2,150.8 396.2,148.5 404.2,146.2 412.1,144.0 420.1,141.8 428.0,139.6 436.0,137.5 443.9,135.3 451.9,133.3 459.8,131.2 467.8,129.2 475.8,127.2 483.7,125.2 491.7,123.2 499.6,121.3 507.6,119.4 515.5,117.5 523.5,115.6 531.4,113.8 539.4,112.0 547.4,110.2 555.3,108.4 563.3,106.7 571.2,104.9 579.2,103.2 587.1,101.5 595.1,99.9 603.1,98.2 611.0,96.6 619.0,95.0 626.9,93.4 634.9,91.8 642.8,90.3 650.8,88.7 658.7,87.2 666.7,85.7 674.7,84.2 682.6,82.8 690.6,81.3 698.5,79.9 706.5,78.5 714.4,77.1 722.4,75.7 730.3,74.3 738.3,73.0 746.3,71.6 754.2,70.3 762.2,69.0 770.1,67.7 778.1,66.4 786.0,65.2 794.0,63.9 802.0,62.7 809.9,61.5 817.9,60.2 825.8,59.0 833.8,57.9 841.7,56.7 849.7,55.5 850.0,55.5"/>
<text x="70" y="408" fill="#94a3b8" font-size="12" font-family="system-ui,sans-serif">time</text>
<text x="12" y="202" fill="#38bdf8" font-size="12" font-family="system-ui,sans-serif" transform="rotate(-90 12 202)">max |ω|</text>
<text x="908" y="202" fill="#f472b6" font-size="12" font-family="system-ui,sans-serif" text-anchor="end" transform="rotate(90 908 202)">∫||ω||∞ dt</text>
<text x="78" y="56" fill="#38bdf8" font-size="11" font-family="system-ui,sans-serif">||ω||∞</text>
<text x="78" y="72" fill="#f472b6" font-size="11" font-family="system-ui,sans-serif">BKM</text>
</svg>