<svg xmlns="http://www.w3.org/2000/svg" width="920" height="420" viewBox="0 0 920 420" role="img" aria-label="3D NS max vorticity and BKM integral vs time">
<rect width="100%" height="100%" fill="#0b1020"/>
<text x="460.0" y="24" fill="#e2e8f0" font-family="system-ui,sans-serif" font-size="16" text-anchor="middle">3D NS — ||ω||∞ and BKM integral (128³)</text>
<line x1="70" y1="365" x2="850" y2="365" stroke="#64748b"/>
<line x1="70" y1="40" x2="70" y2="365" stroke="#64748b"/>
<polyline fill="none" stroke="#38bdf8" stroke-width="2" points="70.0,55.5 78.6,55.6 87.2,55.7 95.7,55.8 104.3,55.9 112.9,56.0 121.5,56.2 130.1,56.3 138.6,56.4 147.2,56.5 155.8,56.6 164.4,56.7 173.0,56.8 181.5,57.0 190.1,57.1 198.7,57.2 207.3,57.3 215.9,57.4 224.4,57.5 233.0,57.6 241.6,57.8 250.2,57.9 258.8,58.0 267.3,58.1 275.9,58.2 284.5,58.3 293.1,58.4 301.7,58.5 310.2,58.7 318.8,58.8 327.4,58.9 336.0,59.0 344.6,59.1 353.1,59.2 361.7,59.3 370.3,59.5 378.9,59.6 387.5,59.7 396.0,59.8 404.6,59.9 413.2,60.0 421.8,60.1 430.4,60.3 438.9,60.4 447.5,60.5 456.1,60.6 464.7,60.7 473.3,60.8 481.8,60.9 490.4,61.1 499.0,61.2 507.6,61.3 516.2,61.4 524.7,61.5 533.3,61.6 541.9,61.8 550.5,61.9 559.1,62.0 567.6,62.1 576.2,62.2 584.8,62.3 593.4,62.4 602.0,62.5 610.5,62.6 619.1,62.6 627.7,62.7 636.3,62.8 644.9,62.8 653.4,62.9 662.0,63.0 670.6,63.0 679.2,63.1 687.8,63.1 696.3,63.2 704.9,63.3 713.5,63.3 722.1,63.4 730.7,63.4 739.2,63.5 747.8,63.6 756.4,63.6 765.0,63.7 773.6,63.8 782.1,63.8 790.7,63.9 799.3,63.9 807.9,64.0 816.5,64.1 825.0,64.1 833.6,64.2 842.2,64.2 850.0,64.3"/>
<polyline fill="none" stroke="#f472b6" stroke-width="2" points="70.0,365.0 78.6,361.5 87.2,358.1 95.7,354.6 104.3,351.2 112.9,347.7 121.5,344.3 130.1,340.8 138.6,337.4 147.2,333.9 155.8,330.5 164.4,327.0 173.0,323.6 181.5,320.1 190.1,316.7 198.7,313.2 207.3,309.8 215.9,306.4 224.4,302.9 233.0,299.5 241.6,296.1 250.2,292.6 258.8,289.2 267.3,285.8 275.9,282.3 284.5,278.9 293.1,275.5 301.7,272.0 310.2,268.6 318.8,265.2 327.4,261.8 336.0,258.4 344.6,254.9 353.1,251.5 361.7,248.1 370.3,244.7 378.9,241.3 387.5,237.9 396.0,234.4 404.6,231.0 413.2,227.6 421.8,224.2 430.4,220.8 438.9,217.4 447.5,214.0 456.1,210.6 464.7,207.2 473.3,203.8 481.8,200.4 490.4,197.0 499.0,193.6 507.6,190.2 516.2,186.8 524.7,183.4 533.3,180.0 541.9,176.6 550.5,173.2 559.1,169.9 567.6,166.5 576.2,163.1 584.8,159.7 593.4,156.3 602.0,152.9 610.5,149.6 619.1,146.2 627.7,142.8 636.3,139.4 644.9,136.0 653.4,132.7 662.0,129.3 670.6,125.9 679.2,122.5 687.8,119.2 696.3,115.8 704.9,112.4 713.5,109.0 722.1,105.7 730.7,102.3 739.2,98.9 747.8,95.6 756.4,92.2 765.0,88.8 773.6,85.4 782.1,82.1 790.7,78.7 799.3,75.3 807.9,72.0 816.5,68.6 825.0,65.3 833.6,61.9 842.2,58.5 850.0,55.5"/>
<text x="70" y="408" fill="#94a3b8" font-size="12" font-family="system-ui,sans-serif">time</text>
<text x="12" y="202" fill="#38bdf8" font-size="12" font-family="system-ui,sans-serif" transform="rotate(-90 12 202)">max |ω|</text>
<text x="908" y="202" fill="#f472b6" font-size="12" font-family="system-ui,sans-serif" text-anchor="end" transform="rotate(90 908 202)">∫||ω||∞ dt</text>
<text x="900" y="56" fill="#94a3b8" font-size="11" font-family="system-ui,sans-serif" text-anchor="end">final BKM=1.244, max|ω|=0.614</text>
</svg>