<svg xmlns="http://www.w3.org/2000/svg" width="920" height="420" viewBox="0 0 920 420" role="img" aria-label="3D NS max vorticity and BKM integral vs time">
<rect width="100%" height="100%" fill="#0b1020"/>
<text x="460.0" y="24" fill="#e2e8f0" font-family="system-ui,sans-serif" font-size="16" text-anchor="middle">3D NS — ||ω||∞ and BKM integral</text>
<line x1="70" y1="365" x2="850" y2="365" stroke="#64748b"/>
<line x1="70" y1="40" x2="70" y2="365" stroke="#64748b"/>
<polyline fill="none" stroke="#38bdf8" stroke-width="2" points="70.0,65.3 78.0,65.2 85.9,65.1 93.9,65.0 101.8,64.8 109.8,64.7 117.7,64.6 125.7,64.5 133.6,64.4 141.6,64.2 149.6,64.1 157.5,64.0 165.5,63.9 173.4,63.8 181.4,63.7 189.3,63.6 197.3,63.4 205.3,63.3 213.2,63.2 221.2,63.1 229.1,63.0 237.1,62.9 245.0,62.8 253.0,62.6 260.9,62.5 268.9,62.4 276.9,62.3 284.8,62.2 292.8,62.1 300.7,62.0 308.7,61.9 316.6,61.8 324.6,61.6 332.5,61.5 340.5,61.4 348.5,61.3 356.4,61.2 364.4,61.1 372.3,61.0 380.3,60.9 388.2,60.8 396.2,60.7 404.2,60.6 412.1,60.5 420.1,60.4 428.0,60.3 436.0,60.2 443.9,60.1 451.9,60.0 459.8,59.9 467.8,59.8 475.8,59.7 483.7,59.6 491.7,59.5 499.6,59.4 507.6,59.3 515.5,59.2 523.5,59.1 531.4,59.0 539.4,58.9 547.4,58.8 555.3,58.7 563.3,58.6 571.2,58.5 579.2,58.4 587.1,58.3 595.1,58.2 603.1,58.1 611.0,58.0 619.0,57.9 626.9,57.8 634.9,57.7 642.8,57.7 650.8,57.6 658.7,57.5 666.7,57.4 674.7,57.3 682.6,57.2 690.6,57.1 698.5,57.0 706.5,57.0 714.4,56.9 722.4,56.8 730.3,56.7 738.3,56.6 746.3,56.5 754.2,56.4 762.2,56.4 770.1,56.3 778.1,56.2 786.0,56.1 794.0,56.0 802.0,56.0 809.9,55.9 817.9,55.8 825.8,55.7 833.8,55.6 841.7,55.6 849.7,55.5 850.0,55.5"/>
<polyline fill="none" stroke="#f472b6" stroke-width="2" points="70.0,365.0 78.0,361.9 85.9,358.8 93.9,355.7 101.8,352.6 109.8,349.5 117.7,346.4 125.7,343.3 133.6,340.1 141.6,337.0 149.6,333.9 157.5,330.8 165.5,327.7 173.4,324.6 181.4,321.4 189.3,318.3 197.3,315.2 205.3,312.1 213.2,309.0 221.2,305.8 229.1,302.7 237.1,299.6 245.0,296.4 253.0,293.3 260.9,290.2 268.9,287.1 276.9,283.9 284.8,280.8 292.8,277.7 300.7,274.5 308.7,271.4 316.6,268.2 324.6,265.1 332.5,262.0 340.5,258.8 348.5,255.7 356.4,252.5 364.4,249.4 372.3,246.2 380.3,243.1 388.2,239.9 396.2,236.8 404.2,233.6 412.1,230.5 420.1,227.3 428.0,224.2 436.0,221.0 443.9,217.9 451.9,214.7 459.8,211.6 467.8,208.4 475.8,205.2 483.7,202.1 491.7,198.9 499.6,195.7 507.6,192.6 515.5,189.4 523.5,186.2 531.4,183.1 539.4,179.9 547.4,176.7 555.3,173.6 563.3,170.4 571.2,167.2 579.2,164.1 587.1,160.9 595.1,157.7 603.1,154.5 611.0,151.4 619.0,148.2 626.9,145.0 634.9,141.8 642.8,138.6 650.8,135.4 658.7,132.3 666.7,129.1 674.7,125.9 682.6,122.7 690.6,119.5 698.5,116.3 706.5,113.1 714.4,110.0 722.4,106.8 730.3,103.6 738.3,100.4 746.3,97.2 754.2,94.0 762.2,90.8 770.1,87.6 778.1,84.4 786.0,81.2 794.0,78.0 802.0,74.8 809.9,71.6 817.9,68.4 825.8,65.2 833.8,62.0 841.7,58.8 849.7,55.6 850.0,55.5"/>
<text x="70" y="408" fill="#94a3b8" font-size="12" font-family="system-ui,sans-serif">time</text>
<text x="12" y="202" fill="#38bdf8" font-size="12" font-family="system-ui,sans-serif" transform="rotate(-90 12 202)">max |ω|</text>
<text x="908" y="202" fill="#f472b6" font-size="12" font-family="system-ui,sans-serif" text-anchor="end" transform="rotate(90 908 202)">∫||ω||∞ dt</text>
<text x="900" y="56" fill="#94a3b8" font-size="11" font-family="system-ui,sans-serif" text-anchor="end">final BKM=4.449, max|ω|=0.903</text>
</svg>