<svg xmlns="http://www.w3.org/2000/svg" width="920" height="420" viewBox="0 0 920 420" role="img" aria-label="3D NS max vorticity and BKM integral vs time">
<rect width="100%" height="100%" fill="#0b1020"/>
<text x="460.0" y="24" fill="#e2e8f0" font-family="system-ui,sans-serif" font-size="16" text-anchor="middle">3D NS — ||ω||∞ and BKM integral</text>
<line x1="70" y1="365" x2="850" y2="365" stroke="#64748b"/>
<line x1="70" y1="40" x2="70" y2="365" stroke="#64748b"/>
<polyline fill="none" stroke="#38bdf8" stroke-width="2" points="70.0,60.0 78.2,59.9 86.4,59.9 94.6,59.8 102.8,59.8 110.9,59.7 119.1,59.7 127.3,59.6 135.5,59.6 143.7,59.5 151.9,59.5 160.1,59.4 168.3,59.4 176.5,59.3 184.7,59.3 192.8,59.2 201.0,59.2 209.2,59.1 217.4,59.1 225.6,59.0 233.8,59.0 242.0,58.9 250.2,58.9 258.4,58.9 266.6,58.8 274.8,58.8 282.9,58.7 291.1,58.7 299.3,58.6 307.5,58.6 315.7,58.5 323.9,58.5 332.1,58.4 340.3,58.4 348.5,58.3 356.6,58.3 364.8,58.2 373.0,58.2 381.2,58.1 389.4,58.1 397.6,58.0 405.8,58.0 414.0,57.9 422.2,57.9 430.4,57.8 438.5,57.8 446.7,57.7 454.9,57.7 463.1,57.6 471.3,57.6 479.5,57.5 487.7,57.5 495.9,57.5 504.1,57.4 512.3,57.4 520.5,57.3 528.6,57.3 536.8,57.2 545.0,57.2 553.2,57.1 561.4,57.1 569.6,57.0 577.8,57.0 586.0,56.9 594.2,56.9 602.4,56.8 610.5,56.8 618.7,56.8 626.9,56.7 635.1,56.7 643.3,56.6 651.5,56.6 659.7,56.5 667.9,56.5 676.1,56.4 684.2,56.4 692.4,56.3 700.6,56.3 708.8,56.2 717.0,56.2 725.2,56.2 733.4,56.1 741.6,56.1 749.8,56.0 758.0,56.0 766.1,55.9 774.3,55.9 782.5,55.8 790.7,55.8 798.9,55.8 807.1,55.7 815.3,55.7 823.5,55.6 831.7,55.6 839.9,55.5 848.1,55.5 850.0,55.5"/>
<polyline fill="none" stroke="#f472b6" stroke-width="2" points="70.0,365.0 78.2,361.8 86.4,358.5 94.6,355.3 102.8,352.1 110.9,348.9 119.1,345.6 127.3,342.4 135.5,339.2 143.7,335.9 151.9,332.7 160.1,329.5 168.3,326.3 176.5,323.0 184.7,319.8 192.8,316.6 201.0,313.3 209.2,310.1 217.4,306.9 225.6,303.6 233.8,300.4 242.0,297.1 250.2,293.9 258.4,290.7 266.6,287.4 274.8,284.2 282.9,281.0 291.1,277.7 299.3,274.5 307.5,271.2 315.7,268.0 323.9,264.8 332.1,261.5 340.3,258.3 348.5,255.0 356.6,251.8 364.8,248.5 373.0,245.3 381.2,242.0 389.4,238.8 397.6,235.6 405.8,232.3 414.0,229.1 422.2,225.8 430.4,222.6 438.5,219.3 446.7,216.1 454.9,212.8 463.1,209.6 471.3,206.3 479.5,203.1 487.7,199.8 495.9,196.6 504.1,193.3 512.3,190.1 520.5,186.8 528.6,183.5 536.8,180.3 545.0,177.0 553.2,173.8 561.4,170.5 569.6,167.3 577.8,164.0 586.0,160.8 594.2,157.5 602.4,154.2 610.5,151.0 618.7,147.7 626.9,144.5 635.1,141.2 643.3,137.9 651.5,134.7 659.7,131.4 667.9,128.2 676.1,124.9 684.2,121.6 692.4,118.4 700.6,115.1 708.8,111.8 717.0,108.6 725.2,105.3 733.4,102.0 741.6,98.8 749.8,95.5 758.0,92.2 766.1,89.0 774.3,85.7 782.5,82.4 790.7,79.2 798.9,75.9 807.1,72.6 815.3,69.3 823.5,66.1 831.7,62.8 839.9,59.5 848.1,56.3 850.0,55.5"/>
<text x="70" y="408" fill="#94a3b8" font-size="12" font-family="system-ui,sans-serif">time</text>
<text x="12" y="202" fill="#38bdf8" font-size="12" font-family="system-ui,sans-serif" transform="rotate(-90 12 202)">max |ω|</text>
<text x="908" y="202" fill="#f472b6" font-size="12" font-family="system-ui,sans-serif" text-anchor="end" transform="rotate(90 908 202)">∫||ω||∞ dt</text>
<text x="900" y="56" fill="#94a3b8" font-size="11" font-family="system-ui,sans-serif" text-anchor="end">final BKM=1.762, max|ω|=0.887</text>
</svg>