<svg xmlns="http://www.w3.org/2000/svg" width="920" height="420" viewBox="0 0 920 420">
<rect width="100%" height="100%" fill="#0b1020"/>
<text x="460" y="24" fill="#e2e8f0" font-family="system-ui,sans-serif" font-size="16" text-anchor="middle">Kerr vs random — 256³, ν=10⁻⁴</text>
<polyline fill="none" stroke="#f97316" stroke-width="2" points="70.0,365.0 78.2,361.7 86.4,358.5 94.6,355.2 102.8,352.0 110.9,348.7 119.1,345.5 127.3,342.2 135.5,339.0 143.7,335.8 151.9,332.5 160.1,329.3 168.3,326.0 176.5,322.8 184.7,319.5 192.8,316.3 201.0,313.0 209.2,309.8 217.4,306.5 225.6,303.3 233.8,300.0 242.0,296.8 250.2,293.5 258.4,290.3 266.6,287.0 274.8,283.8 282.9,280.5 291.1,277.3 299.3,274.0 307.5,270.8 315.7,267.5 323.9,264.3 332.1,261.0 340.3,257.8 348.5,254.5 356.6,251.3 364.8,248.0 373.0,244.8 381.2,241.5 389.4,238.3 397.6,235.0 405.8,231.8 414.0,228.5 422.2,225.3 430.4,222.0 438.5,218.8 446.7,215.5 454.9,212.3 463.1,209.0 471.3,205.8 479.5,202.5 487.7,199.3 495.9,196.0 504.1,192.8 512.3,189.5 520.5,186.3 528.6,183.0 536.8,179.8 545.0,176.5 553.2,173.3 561.4,170.0 569.6,166.8 577.8,163.5 586.0,160.3 594.2,157.0 602.4,153.8 610.5,150.5 618.7,147.3 626.9,144.0 635.1,140.8 643.3,137.5 651.5,134.3 659.7,131.0 667.9,127.8 676.1,124.5 684.2,121.3 692.4,118.0 700.6,114.8 708.8,111.5 717.0,108.3 725.2,105.0 733.4,101.8 741.6,98.5 749.8,95.3 758.0,92.0 766.1,88.8 774.3,85.5 782.5,82.3 790.7,79.0 798.9,75.8 807.1,72.5 815.3,69.3 823.5,66.0 831.7,62.8 839.9,59.5 848.1,56.3 850.0,55.5"/>
<polyline fill="none" stroke="#38bdf8" stroke-width="2" points="70.0,365.0 78.2,364.4 86.4,363.9 94.6,363.3 102.8,362.7 110.9,362.2 119.1,361.6 127.3,361.0 135.5,360.4 143.7,359.9 151.9,359.3 160.1,358.7 168.3,358.2 176.5,357.6 184.7,357.0 192.8,356.5 201.0,355.9 209.2,355.3 217.4,354.7 225.6,354.2 233.8,353.6 242.0,353.0 250.2,352.5 258.4,351.9 266.6,351.3 274.8,350.7 282.9,350.2 291.1,349.6 299.3,349.0 307.5,348.5 315.7,347.9 323.9,347.3 332.1,346.7 340.3,346.2 348.5,345.6 356.6,345.0 364.8,344.5 373.0,343.9 381.2,343.3 389.4,342.7 397.6,342.2 405.8,341.6 414.0,341.0 422.2,340.5 430.4,339.9 438.5,339.3 446.7,338.7 454.9,338.2 463.1,337.6 471.3,337.0 479.5,336.4 487.7,335.9 495.9,335.3 504.1,334.7 512.3,334.1 520.5,333.6 528.6,333.0 536.8,332.4 545.0,331.8 553.2,331.3 561.4,330.7 569.6,330.1 577.8,329.6 586.0,329.0 594.2,328.4 602.4,327.8 610.5,327.3 618.7,326.7 626.9,326.1 635.1,325.5 643.3,325.0 651.5,324.4 659.7,323.8 667.9,323.2 676.1,322.7 684.2,322.1 692.4,321.5 700.6,320.9 708.8,320.3 717.0,319.8 725.2,319.2 733.4,318.6 741.6,318.0 749.8,317.5 758.0,316.9 766.1,316.3 774.3,315.7 782.5,315.2 790.7,314.6 798.9,314.0 807.1,313.4 815.3,312.9 823.5,312.3 831.7,311.7 839.9,311.1 848.1,310.5 850.0,310.4"/>
<text x="904" y="54" fill="#f97316" font-size="11" text-anchor="end">Kerr BKM=9.99</text>
<text x="904" y="68" fill="#38bdf8" font-size="11" text-anchor="end">Random BKM=1.76</text>
</svg>